<svg width="314" height="316" viewBox="0 0 314 316" fill="none" xmlns="http://www.w3.org/2000/svg">
<g id="menu">
<g id="home" filter="url(#filter0_d)">
<g id="Vector 11">
<path d="M227 288.5L195.5 233C181.506 240.205 173.238 242.232 158 243.5C142.014 241.972 133.738 239.574 120 233L90 287C114.529 300.305 129.347 304.672 158 306C186.342 305.154 201.487 301.483 227 288.5Z" fill="#F32B2B"/>
<path d="M227 288.5L195.5 233C181.506 240.205 173.238 242.232 158 243.5C142.014 241.972 133.738 239.574 120 233L90 287C114.529 300.305 129.347 304.672 158 306C186.342 305.154 201.487 301.483 227 288.5Z" stroke="#793C03" stroke-width="3"/>
<path d="M227 288.5L195.5 233C181.506 240.205 173.238 242.232 158 243.5C142.014 241.972 133.738 239.574 120 233L90 287C114.529 300.305 129.347 304.672 158 306C186.342 305.154 201.487 301.483 227 288.5Z" stroke="url(#paint0_linear)" stroke-width="3"/>
</g>
<g id="Home">
<text transform="translate(200.746 289.847) rotate(-179.133)" fill="#793C03" xml:space="preserve" style="white-space: pre" font-family="Goudy Bookletter 1911" font-size="28" letter-spacing="0em"><tspan x="9.21808" y="28.0918">Home</tspan></text>
<text transform="translate(200.746 289.847) rotate(-179.133)" stroke="#793C03" xml:space="preserve" style="white-space: pre" font-family="Goudy Bookletter 1911" font-size="28" letter-spacing="0em"><tspan x="9.21808" y="28.0918">Home</tspan></text>
<text transform="translate(200.746 289.847) rotate(-179.133)" stroke="url(#paint1_linear)" xml:space="preserve" style="white-space: pre" font-family="Goudy Bookletter 1911" font-size="28" letter-spacing="0em"><tspan x="9.21808" y="28.0918">Home</tspan></text>
</g>
</g>
<g id="more" filter="url(#filter1_d)">
<g id="Vector 10">
<path d="M73.5 279L103.5 224.5C91.5062 217.213 85.8404 211.365 77.5 198C70.499 186.268 68.2076 178.16 67 161H6C7.27459 190.556 11.8157 205.392 24 230C39.5655 253.293 50.2693 264.17 73.5 279Z" fill="#F32B2B"/>
<path d="M73.5 279L103.5 224.5C91.5062 217.213 85.8404 211.365 77.5 198C70.499 186.268 68.2076 178.16 67 161H6C7.27459 190.556 11.8157 205.392 24 230C39.5655 253.293 50.2693 264.17 73.5 279Z" stroke="#793C03" stroke-width="3"/>
<path d="M73.5 279L103.5 224.5C91.5062 217.213 85.8404 211.365 77.5 198C70.499 186.268 68.2076 178.16 67 161H6C7.27459 190.556 11.8157 205.392 24 230C39.5655 253.293 50.2693 264.17 73.5 279Z" stroke="url(#paint2_linear)" stroke-width="3"/>
</g>
<g id="More">
<text transform="translate(60.1542 267.073) rotate(-118.535)" fill="#793C03" xml:space="preserve" style="white-space: pre" font-family="Goudy Bookletter 1911" font-size="22" letter-spacing="0em"><tspan x="28.4957" y="22.1436">More</tspan></text>
<text transform="translate(60.1542 267.073) rotate(-118.535)" stroke="#793C03" xml:space="preserve" style="white-space: pre" font-family="Goudy Bookletter 1911" font-size="22" letter-spacing="0em"><tspan x="28.4957" y="22.1436">More</tspan></text>
<text transform="translate(60.1542 267.073) rotate(-118.535)" stroke="url(#paint3_linear)" xml:space="preserve" style="white-space: pre" font-family="Goudy Bookletter 1911" font-size="22" letter-spacing="0em"><tspan x="28.4957" y="22.1436">More</tspan></text>
</g>
</g>
<g id="kids" filter="url(#filter2_d)">
<g id="Vector 12">
<path d="M308 161H244C243.178 176.204 240.973 184.189 234 197.5C226.332 210.082 220.185 215.827 207 224.5L238.5 280C261.725 265.353 272.527 254.695 288 231.5C302.193 206.615 307.159 191.423 308 161Z" fill="#F32B2B"/>
<path d="M308 161H244C243.178 176.204 240.973 184.189 234 197.5C226.332 210.082 220.185 215.827 207 224.5L238.5 280C261.725 265.353 272.527 254.695 288 231.5C302.193 206.615 307.159 191.423 308 161Z" stroke="#793C03" stroke-width="3"/>
<path d="M308 161H244C243.178 176.204 240.973 184.189 234 197.5C226.332 210.082 220.185 215.827 207 224.5L238.5 280C261.725 265.353 272.527 254.695 288 231.5C302.193 206.615 307.159 191.423 308 161Z" stroke="url(#paint4_linear)" stroke-width="3"/>
</g>
<g id="Kid&#226;&#128;&#153;s Dance">
<text transform="translate(306.684 174.532) rotate(123.975)" fill="#793C03" xml:space="preserve" style="white-space: pre" font-family="Goudy Bookletter 1911" font-size="22" letter-spacing="0em"><tspan x="4.72279" y="22.1436">Kid&#x2019;s Dance</tspan></text>
<text transform="translate(306.684 174.532) rotate(123.975)" stroke="#793C03" xml:space="preserve" style="white-space: pre" font-family="Goudy Bookletter 1911" font-size="22" letter-spacing="0em"><tspan x="4.72279" y="22.1436">Kid&#x2019;s Dance</tspan></text>
<text transform="translate(306.684 174.532) rotate(123.975)" stroke="url(#paint5_linear)" xml:space="preserve" style="white-space: pre" font-family="Goudy Bookletter 1911" font-size="22" letter-spacing="0em"><tspan x="4.72279" y="22.1436">Kid&#x2019;s Dance</tspan></text>
</g>
</g>
<g id="weds" filter="url(#filter3_d)">
<g id="Vector 13">
<path d="M238.5 27L208 81.5C222.277 91.3635 228.031 97.8231 235.5 110.5C241.884 124.601 243.673 132.482 244 146.5H308C307.157 118.867 303.157 103.544 289.5 76.5C273.312 51.7773 261.889 41.3115 238.5 27Z" fill="#F32B2B"/>
<path d="M238.5 27L208 81.5C222.277 91.3635 228.031 97.8231 235.5 110.5C241.884 124.601 243.673 132.482 244 146.5H308C307.157 118.867 303.157 103.544 289.5 76.5C273.312 51.7773 261.889 41.3115 238.5 27Z" stroke="#793C03" stroke-width="3"/>
<path d="M238.5 27L208 81.5C222.277 91.3635 228.031 97.8231 235.5 110.5C241.884 124.601 243.673 132.482 244 146.5H308C307.157 118.867 303.157 103.544 289.5 76.5C273.312 51.7773 261.889 41.3115 238.5 27Z" stroke="url(#paint6_linear)" stroke-width="3"/>
</g>
<g id="Wedding">
<text transform="translate(251.065 35.5) rotate(60.264)" fill="#793C03" xml:space="preserve" style="white-space: pre" font-family="Goudy Bookletter 1911" font-size="22" letter-spacing="0em"><tspan x="17.8747" y="22.1436">Wedding</tspan></text>
<text transform="translate(251.065 35.5) rotate(60.264)" stroke="#793C03" xml:space="preserve" style="white-space: pre" font-family="Goudy Bookletter 1911" font-size="22" letter-spacing="0em"><tspan x="17.8747" y="22.1436">Wedding</tspan></text>
<text transform="translate(251.065 35.5) rotate(60.264)" stroke="url(#paint7_linear)" xml:space="preserve" style="white-space: pre" font-family="Goudy Bookletter 1911" font-size="22" letter-spacing="0em"><tspan x="17.8747" y="22.1436">Wedding</tspan></text>
</g>
</g>
<g id="comp" filter="url(#filter4_d)">
<g id="Vector 8">
<path d="M90 21L120 74.5C132.85 67.2781 141.236 64.9155 158.5 64C173.368 64.8108 181.683 67.0848 196.5 74.5L227 20C203.168 7.38315 188.107 3.56143 158.5 2C128.493 2.96463 113.911 7.94972 90 21Z" fill="#F32B2B"/>
<path d="M90 21L120 74.5C132.85 67.2781 141.236 64.9155 158.5 64C173.368 64.8108 181.683 67.0848 196.5 74.5L227 20C203.168 7.38315 188.107 3.56143 158.5 2C128.493 2.96463 113.911 7.94972 90 21Z" stroke="#793C03" stroke-width="3"/>
<path d="M90 21L120 74.5C132.85 67.2781 141.236 64.9155 158.5 64C173.368 64.8108 181.683 67.0848 196.5 74.5L227 20C203.168 7.38315 188.107 3.56143 158.5 2C128.493 2.96463 113.911 7.94972 90 21Z" stroke="url(#paint8_linear)" stroke-width="3"/>
</g>
<g id="Competitive">
<text transform="translate(101 17.8727) rotate(-0.188807)" fill="#793C03" xml:space="preserve" style="white-space: pre" font-family="Goudy Bookletter 1911" font-size="20" letter-spacing="0em"><tspan x="8.19798" y="19.9941">Competitive</tspan></text>
<text transform="translate(101 17.8727) rotate(-0.188807)" stroke="#793C03" xml:space="preserve" style="white-space: pre" font-family="Goudy Bookletter 1911" font-size="20" letter-spacing="0em"><tspan x="8.19798" y="19.9941">Competitive</tspan></text>
<text transform="translate(101 17.8727) rotate(-0.188807)" stroke="url(#paint9_linear)" xml:space="preserve" style="white-space: pre" font-family="Goudy Bookletter 1911" font-size="20" letter-spacing="0em"><tspan x="8.19798" y="19.9941">Competitive</tspan></text>
</g>
</g>
<g id="social" filter="url(#filter5_d)">
<g id="Vector 9">
<path d="M6 145H67C69.8036 114.838 76.3038 100.067 103.5 80.5L73 27C50.7447 41.3976 40.2644 52.207 24.5 75.5C10.8098 101.348 7.55247 116.723 6 145Z" fill="#F32B2B"/>
<path d="M6 145H67C69.8036 114.838 76.3038 100.067 103.5 80.5L73 27C50.7447 41.3976 40.2644 52.207 24.5 75.5C10.8098 101.348 7.55247 116.723 6 145Z" stroke="#793C03" stroke-width="3"/>
<path d="M6 145H67C69.8036 114.838 76.3038 100.067 103.5 80.5L73 27C50.7447 41.3976 40.2644 52.207 24.5 75.5C10.8098 101.348 7.55247 116.723 6 145Z" stroke="url(#paint10_linear)" stroke-width="3"/>
</g>
<g id="Social">
<text transform="translate(12.5 118.986) rotate(-59.0763)" fill="#793C03" xml:space="preserve" style="white-space: pre" font-family="Goudy Bookletter 1911" font-size="22" letter-spacing="0em"><tspan x="15.8359" y="22.1436">Social</tspan></text>
<text transform="translate(12.5 118.986) rotate(-59.0763)" stroke="#793C03" xml:space="preserve" style="white-space: pre" font-family="Goudy Bookletter 1911" font-size="22" letter-spacing="0em"><tspan x="15.8359" y="22.1436">Social</tspan></text>
<text transform="translate(12.5 118.986) rotate(-59.0763)" stroke="url(#paint11_linear)" xml:space="preserve" style="white-space: pre" font-family="Goudy Bookletter 1911" font-size="22" letter-spacing="0em"><tspan x="15.8359" y="22.1436">Social</tspan></text>
</g>
</g>
<g id="dance">
<g id="Ellipse 1">
<circle cx="159" cy="153" r="78.5" fill="#F32B2B"/>
<circle cx="159" cy="153" r="78.5" stroke="#793C03" stroke-width="3"/>
<circle cx="159" cy="153" r="78.5" stroke="url(#paint12_linear)" stroke-width="3"/>
</g>
<g id="DANCE">
<text fill="#793C03" xml:space="preserve" style="white-space: pre" font-family="Goudy Bookletter 1911" font-size="35" letter-spacing="0em"><tspan x="95.9214" y="167.365">DANCE</tspan></text>
<text stroke="#793C03" xml:space="preserve" style="white-space: pre" font-family="Goudy Bookletter 1911" font-size="35" letter-spacing="0em"><tspan x="95.9214" y="167.365">DANCE</tspan></text>
<text stroke="url(#paint13_linear)" xml:space="preserve" style="white-space: pre" font-family="Goudy Bookletter 1911" font-size="35" letter-spacing="0em"><tspan x="95.9214" y="167.365">DANCE</tspan></text>
</g>
</g>
</g>
<defs>
<filter id="filter0_d" x="83.9529" y="231.007" width="149.127" height="84.4939" filterUnits="userSpaceOnUse" color-interpolation-filters="sRGB">
<feFlood flood-opacity="0" result="BackgroundImageFix"/>
<feColorMatrix in="SourceAlpha" type="matrix" values="0 0 0 0 0 0 0 0 0 0 0 0 0 0 0 0 0 0 127 0"/>
<feOffset dy="4"/>
<feGaussianBlur stdDeviation="2"/>
<feColorMatrix type="matrix" values="0 0 0 0 0 0 0 0 0 0 0 0 0 0 0 0 0 0 0.25 0"/>
<feBlend mode="normal" in2="BackgroundImageFix" result="effect1_dropShadow"/>
<feBlend mode="normal" in="SourceGraphic" in2="effect1_dropShadow" result="shape"/>
</filter>
<filter id="filter1_d" x="0.433929" y="159.5" width="109.073" height="129.626" filterUnits="userSpaceOnUse" color-interpolation-filters="sRGB">
<feFlood flood-opacity="0" result="BackgroundImageFix"/>
<feColorMatrix in="SourceAlpha" type="matrix" values="0 0 0 0 0 0 0 0 0 0 0 0 0 0 0 0 0 0 127 0"/>
<feOffset dy="4"/>
<feGaussianBlur stdDeviation="2"/>
<feColorMatrix type="matrix" values="0 0 0 0 0 0 0 0 0 0 0 0 0 0 0 0 0 0 0.25 0"/>
<feBlend mode="normal" in2="BackgroundImageFix" result="effect1_dropShadow"/>
<feBlend mode="normal" in="SourceGraphic" in2="effect1_dropShadow" result="shape"/>
</filter>
<filter id="filter2_d" x="201.002" y="159.5" width="112.54" height="130.607" filterUnits="userSpaceOnUse" color-interpolation-filters="sRGB">
<feFlood flood-opacity="0" result="BackgroundImageFix"/>
<feColorMatrix in="SourceAlpha" type="matrix" values="0 0 0 0 0 0 0 0 0 0 0 0 0 0 0 0 0 0 127 0"/>
<feOffset dy="4"/>
<feGaussianBlur stdDeviation="2"/>
<feColorMatrix type="matrix" values="0 0 0 0 0 0 0 0 0 0 0 0 0 0 0 0 0 0 0.25 0"/>
<feBlend mode="normal" in2="BackgroundImageFix" result="effect1_dropShadow"/>
<feBlend mode="normal" in="SourceGraphic" in2="effect1_dropShadow" result="shape"/>
</filter>
<filter id="filter3_d" x="202.025" y="24.9066" width="111.522" height="131.093" filterUnits="userSpaceOnUse" color-interpolation-filters="sRGB">
<feFlood flood-opacity="0" result="BackgroundImageFix"/>
<feColorMatrix in="SourceAlpha" type="matrix" values="0 0 0 0 0 0 0 0 0 0 0 0 0 0 0 0 0 0 127 0"/>
<feOffset dy="4"/>
<feGaussianBlur stdDeviation="2"/>
<feColorMatrix type="matrix" values="0 0 0 0 0 0 0 0 0 0 0 0 0 0 0 0 0 0 0.25 0"/>
<feBlend mode="normal" in2="BackgroundImageFix" result="effect1_dropShadow"/>
<feBlend mode="normal" in="SourceGraphic" in2="effect1_dropShadow" result="shape"/>
</filter>
<filter id="filter4_d" x="83.9496" y="0.498718" width="149.109" height="84.0445" filterUnits="userSpaceOnUse" color-interpolation-filters="sRGB">
<feFlood flood-opacity="0" result="BackgroundImageFix"/>
<feColorMatrix in="SourceAlpha" type="matrix" values="0 0 0 0 0 0 0 0 0 0 0 0 0 0 0 0 0 0 127 0"/>
<feOffset dy="4"/>
<feGaussianBlur stdDeviation="2"/>
<feColorMatrix type="matrix" values="0 0 0 0 0 0 0 0 0 0 0 0 0 0 0 0 0 0 0.25 0"/>
<feBlend mode="normal" in2="BackgroundImageFix" result="effect1_dropShadow"/>
<feBlend mode="normal" in="SourceGraphic" in2="effect1_dropShadow" result="shape"/>
</filter>
<filter id="filter5_d" x="0.415375" y="24.8788" width="109.056" height="129.621" filterUnits="userSpaceOnUse" color-interpolation-filters="sRGB">
<feFlood flood-opacity="0" result="BackgroundImageFix"/>
<feColorMatrix in="SourceAlpha" type="matrix" values="0 0 0 0 0 0 0 0 0 0 0 0 0 0 0 0 0 0 127 0"/>
<feOffset dy="4"/>
<feGaussianBlur stdDeviation="2"/>
<feColorMatrix type="matrix" values="0 0 0 0 0 0 0 0 0 0 0 0 0 0 0 0 0 0 0.25 0"/>
<feBlend mode="normal" in2="BackgroundImageFix" result="effect1_dropShadow"/>
<feBlend mode="normal" in="SourceGraphic" in2="effect1_dropShadow" result="shape"/>
</filter>
<linearGradient id="paint0_linear" x1="158.5" y1="233" x2="158.5" y2="306" gradientUnits="userSpaceOnUse">
<stop stop-color="white"/>
<stop offset="1" stop-color="white" stop-opacity="0"/>
</linearGradient>
<linearGradient id="paint1_linear" x1="42.2493" y1="0" x2="42.2493" y2="43.7921" gradientUnits="userSpaceOnUse">
<stop stop-color="white"/>
<stop offset="1" stop-color="white" stop-opacity="0"/>
</linearGradient>
<linearGradient id="paint2_linear" x1="54.75" y1="161" x2="54.75" y2="279" gradientUnits="userSpaceOnUse">
<stop stop-color="white"/>
<stop offset="1" stop-color="white" stop-opacity="0"/>
</linearGradient>
<linearGradient id="paint3_linear" x1="53.0201" y1="0" x2="53.0201" y2="29.5026" gradientUnits="userSpaceOnUse">
<stop stop-color="white"/>
<stop offset="1" stop-color="white" stop-opacity="0"/>
</linearGradient>
<linearGradient id="paint4_linear" x1="257.5" y1="161" x2="257.5" y2="280" gradientUnits="userSpaceOnUse">
<stop stop-color="white"/>
<stop offset="1" stop-color="white" stop-opacity="0"/>
</linearGradient>
<linearGradient id="paint5_linear" x1="55.5656" y1="0" x2="55.5656" y2="24.215" gradientUnits="userSpaceOnUse">
<stop stop-color="white"/>
<stop offset="1" stop-color="white" stop-opacity="0"/>
</linearGradient>
<linearGradient id="paint6_linear" x1="258" y1="27" x2="258" y2="146.5" gradientUnits="userSpaceOnUse">
<stop stop-color="white"/>
<stop offset="1" stop-color="white" stop-opacity="0"/>
</linearGradient>
<linearGradient id="paint7_linear" x1="56.5574" y1="0" x2="56.5574" y2="25.987" gradientUnits="userSpaceOnUse">
<stop stop-color="white"/>
<stop offset="1" stop-color="white" stop-opacity="0"/>
</linearGradient>
<linearGradient id="paint8_linear" x1="158.5" y1="2" x2="158.5" y2="74.5" gradientUnits="userSpaceOnUse">
<stop stop-color="white"/>
<stop offset="1" stop-color="white" stop-opacity="0"/>
</linearGradient>
<linearGradient id="paint9_linear" x1="56.5574" y1="0" x2="56.5574" y2="25.987" gradientUnits="userSpaceOnUse">
<stop stop-color="white"/>
<stop offset="1" stop-color="white" stop-opacity="0"/>
</linearGradient>
<linearGradient id="paint10_linear" x1="54.75" y1="27" x2="54.75" y2="145" gradientUnits="userSpaceOnUse">
<stop stop-color="white"/>
<stop offset="1" stop-color="white" stop-opacity="0"/>
</linearGradient>
<linearGradient id="paint11_linear" x1="40.5" y1="0" x2="40.5" y2="38.7993" gradientUnits="userSpaceOnUse">
<stop stop-color="white"/>
<stop offset="1" stop-color="white" stop-opacity="0"/>
</linearGradient>
<linearGradient id="paint12_linear" x1="159" y1="73" x2="159" y2="233" gradientUnits="userSpaceOnUse">
<stop stop-color="white"/>
<stop offset="1" stop-color="white" stop-opacity="0"/>
</linearGradient>
<linearGradient id="paint13_linear" x1="159" y1="123" x2="159" y2="189" gradientUnits="userSpaceOnUse">
<stop stop-color="white"/>
<stop offset="1" stop-color="white" stop-opacity="0"/>
</linearGradient>
</defs>
</svg>
