<svg width="1652" height="1534" viewBox="0 0 1652 1534" fill="none" xmlns="http://www.w3.org/2000/svg">
<path d="M718 1237.5C690.359 1269.12 664 1330.5 664 1330.5C664 1330.5 680.365 1326.07 689.5 1320.5C703.3 1312.09 718 1290.5 718 1290.5L764 1258L781.5 1250V1258V1268.5C781.5 1268.5 786.268 1274.11 790.5 1275.5H801C801 1275.5 828.328 1253.22 844.5 1237.5C859.06 1223.34 865.947 1214.16 880 1199.5C896.912 1181.86 907.83 1173.32 924 1155C941.677 1134.97 949.718 1122.18 966 1101C979.162 1083.88 983.632 1071.65 999.5 1057C1013.03 1044.51 1020.17 1032.28 1038.5 1030.5H1048C1048 1030.5 1050.49 1041.07 1054.5 1046.5C1058.29 1051.63 1061.2 1054.35 1067 1057C1076.06 1061.14 1082.67 1058.62 1092.5 1057C1107.68 1054.49 1115.01 1048.39 1128.5 1041C1152.58 1027.81 1163.89 1016.64 1184.5 998.5C1222 965.483 1236.69 940.531 1268.5 902C1313.72 847.215 1379 757.5 1379 757.5C1379 757.5 1311.33 845.193 1263.5 897.5C1244.21 918.598 1234.78 931.983 1213 950.5C1186.88 972.704 1171.18 985.399 1139.5 998.5C1126.03 1004.07 1116.43 1017.61 1104 1010C1097.02 1005.73 1098.94 997.537 1092.5 992.5C1084.4 986.17 1077.28 985.894 1067 986C1053.22 986.142 1046.42 992.528 1034 998.5C1019.79 1005.33 999.5 1019.5 999.5 1019.5L980 1041L951.5 1081.5L906.5 1141C906.5 1141 874.322 1195.22 840 1199.5C832.443 1200.44 827.507 1202.48 820.5 1199.5C807.756 1194.07 817.024 1176.56 807.5 1166.5C801.989 1160.68 798.285 1156.91 790.5 1155C769.709 1149.91 772.609 1183.4 758.5 1199.5C744.204 1215.81 732.274 1221.17 718 1237.5Z" fill="#594949" fill-opacity="0.31" stroke="black"/>
<path d="M737.5 1343.5C724.01 1345.57 712.645 1344.05 704.5 1355C700.626 1360.21 700.47 1364.32 698.5 1370.5C694.815 1382.07 693.755 1388.93 692.5 1401C691.067 1414.79 685.876 1424.32 692.5 1436.5C697.327 1445.38 702.53 1449.98 712 1453.5C721.335 1456.97 727.797 1455.74 737.5 1453.5C752.855 1449.95 760.343 1442.61 771 1431C786.206 1414.44 793.5 1378 793.5 1378C793.5 1378 844.32 1391.18 872 1378C888.389 1370.2 907.5 1348 907.5 1348C907.5 1348 930.496 1316.62 944.5 1296C956.55 1278.26 962.273 1267.62 974.5 1250C987.235 1231.65 998.456 1223.95 1008.5 1204C1022.81 1175.57 1003.37 1146.37 1026.5 1124.5C1032.41 1118.92 1036.21 1116.09 1043.5 1112.5C1064 1102.42 1080.59 1120.46 1102 1112.5C1118.51 1106.36 1125.41 1097.79 1138.5 1086C1163.08 1063.86 1189 1018 1189 1018C1189 1018 1158.78 1044 1138.5 1059.5C1124.5 1070.19 1102 1086 1102 1086C1102 1086 1070.12 1096 1054.5 1086C1043.78 1079.13 1048.23 1059.81 1035.5 1059.5C1022.54 1059.18 1022.16 1074.88 1015.5 1086C1001.48 1109.42 1006.84 1128.42 994 1152.5C982.074 1174.87 969.76 1183.76 954.5 1204C938.7 1224.95 931.65 1238.13 914.5 1258C894.558 1281.1 885.362 1298.02 858.5 1312.5C841.65 1321.58 830.139 1321.89 812 1328C794.212 1334 766.5 1343.5 766.5 1343.5C766.5 1343.5 748.695 1341.79 737.5 1343.5Z" fill="#594949" fill-opacity="0.46" stroke="black"/>
<path d="M838.5 1044.5C797.801 1086.32 742.5 1159 742.5 1159C742.5 1159 769.553 1107.92 790.5 1077.5C824.948 1027.47 851.985 1005.31 893 960.5C905.408 946.945 911.853 938.839 925 926C936.079 915.18 940.329 905.745 954.5 899.5C961.348 896.482 965.624 893.235 973 894.5C982.935 896.204 991.5 912.5 991.5 912.5C991.5 912.5 1002.61 901.356 1010 894.5C1029.94 875.999 1040.62 864.41 1064 850.5C1084.82 838.111 1097.61 819.671 1121 826C1125.9 827.326 1128.43 828.779 1133 831C1142.4 835.573 1155.5 845.5 1155.5 845.5C1155.5 845.5 1186.35 837.814 1205.5 831C1228.81 822.707 1241.9 817.565 1263.5 805.5C1283.5 794.329 1293.1 785.448 1312 772.5C1345.92 749.264 1398.5 712.5 1398.5 712.5C1398.5 712.5 1347.16 767.246 1312 800C1274.81 834.649 1256.41 858.056 1213 884.5C1179.34 905.005 1157.6 940.63 1121 926C1103.79 919.12 1085.5 894.5 1085.5 894.5C1085.5 894.5 1046.49 918.564 1021.5 934C995.914 949.806 967.155 1002.43 956 974.5C951.799 963.983 956 945.5 956 945.5C956 945.5 944.906 951.064 938 955C892.593 980.878 874.953 1007.05 838.5 1044.5Z" fill="#594949" fill-opacity="0.51" stroke="black"/>
<path d="M1566.5 448.5L1552.5 427.5L1537.5 416.5L1521 421L1514.5 438.5L1518 451.5L1519.5 463L1518 484.5L1519.5 496L1524.5 504.5L1528.5 531L1534 522L1533 500.5V491L1537.5 484.5L1548.5 487L1566.5 507L1567.25 515.75L1568 524.5L1556.5 535.5L1568 532.5L1574.5 523V514.5V504.5L1607.5 532.5V524.5L1586 504.5L1587.5 500.5L1605.5 509.5L1623.5 523L1614 507L1597.5 492.5L1595.5 487L1614 482.5L1622 479L1603.5 477.5L1587.5 472.5L1577.5 466L1566.5 448.5Z" fill="white" stroke="black"/>
<path d="M1535.5 413.5L1554 425L1579 463L1589.5 470L1604 475.5H1613.5L1626.5 478L1641.5 487L1649.5 492L1623 481.5L1598 488.5L1600.5 492L1617 506L1630 528.5L1635 542.5L1617 520.5L1604 511L1587.5 503L1609 522.5L1613.5 556L1605.5 533.5L1577.5 511V523L1573 531.5L1562 537L1532.5 547L1556 531.5L1564.5 524.5V508L1547 490L1539 488.5L1535.5 492V520.5L1532.5 530L1526 537L1522.5 511V506L1516 495V483V472.5V456L1514 450.5" stroke="black" stroke-width="6"/>
<path d="M991 361C989.855 369.885 984.5 383 984.5 383C984.5 383 1017.54 475.094 1048 529.5C1053.3 538.967 1056.44 544.18 1062 553.5C1067.38 562.532 1067.48 570.343 1076 576.5C1079.54 579.056 1081.64 581.266 1086 581.5C1090.89 581.762 1092.61 576.209 1097.5 576.5C1102.85 576.819 1104.45 581.163 1109 584C1116.28 588.536 1128 595 1128 595C1128 595 1152.04 589.231 1165.5 595C1173.4 598.387 1177.13 602.12 1183.11 608.105L1183.5 608.5C1187.62 612.622 1188.39 616.436 1193 620C1197.91 623.796 1201.61 624.544 1207.5 626.5C1216.15 629.373 1221.42 629.689 1230.5 630.5C1240.22 631.368 1245.89 632.25 1255.5 630.5C1268.82 628.073 1273.91 619.479 1287 616C1293.52 614.268 1297.41 611.592 1304 613C1310.73 614.437 1311.93 620.97 1318.5 623C1327.52 625.787 1333.13 621.215 1342.5 620C1354.03 618.504 1360.57 618.131 1372 616C1384.24 613.717 1391.28 612.708 1403 608.5C1419.28 602.655 1442 587.5 1442 587.5C1442 587.5 1424.7 587.053 1414 584.5C1397.94 580.665 1389.3 576.071 1375.5 567C1360.84 557.362 1353.63 550.064 1342.5 536.5C1331.05 522.549 1327.14 512.847 1318.5 497C1308.76 479.134 1301.64 469.551 1296 450C1288.73 424.804 1291.5 383 1291.5 383C1291.5 383 1288.64 336.462 1280.5 308C1277.21 296.482 1276.12 289.578 1270.5 279C1265.77 270.101 1262.54 265.208 1255.5 258C1244.29 246.527 1235.81 241.298 1220.5 236.5C1206.67 232.164 1183.5 233.5 1183.5 233.5C1183.5 233.5 1178.52 222.346 1172 220C1165.05 217.496 1160.53 221.719 1153.5 224C1137.92 229.053 1132.93 240.018 1117.5 245.5C1109.91 248.195 1105.47 249.359 1097.5 250.5C1086.48 252.078 1080.02 248.944 1069 250.5C1058.35 252.004 1052.35 253.692 1042.5 258C1034 261.716 1028.92 263.823 1022 270C1015.56 275.747 1012.99 280.127 1008.5 287.5C1003.91 295.037 1002.06 299.723 999 308C994.209 320.974 992.078 328.712 991 342.5C990.437 349.703 991.923 353.835 991 361Z" fill="black"/>
<path d="M1166 367.5C1164.32 352.627 1156.36 345.463 1156 330.5C1155.79 321.856 1155.99 316.775 1158.5 308.5C1160.5 301.896 1166 292.5 1166 292.5C1166 292.5 1161.78 306.693 1162 316C1162.2 324.154 1164.29 328.524 1166 336.5C1169.92 354.839 1178.34 364.249 1178 383C1177.86 390.676 1177.07 394.984 1175.5 402.5L1175.4 402.995C1174.01 409.65 1173.18 413.603 1170.5 420C1166.46 429.64 1156 442.5 1156 442.5L1152 464.5L1156 487L1142 464.5V450L1152 426C1152 426 1163.41 408.666 1166 396C1168.23 385.096 1167.25 378.56 1166 367.5Z" fill="white"/>
<path d="M724.5 398L822 427V471.5L768.5 458.5L701 435L724.5 398Z" fill="white"/>
<path d="M881.5 412L867.5 404.5L845.5 398L799 404.5H712L644.5 384H631.5" stroke="black" stroke-width="5"/>
<path d="M855 470.5H822.5C822.5 470.5 790.353 460.1 769 458C753.065 456.433 718.341 439.83 702.5 437.5" stroke="black" stroke-width="7"/>
<path d="M893.5 608L882.5 649.5L893.5 712.5L882.5 772L683.5 684.5L738.5 626.5L792 567.5L807 540.5L816.5 511L801.5 498.5L792 474.5L801.5 445.5L816.5 431L848 419L931.5 406L994 385L1045 352.5L1081 373.5L1089.5 406L1045 427H1075.5L1097.5 455.5L1068 502.5L1032 521.5L994 540.5L966.5 572H939L893.5 608Z" fill="white"/>
<path d="M889.5 749C889.5 749 894.399 726.274 894.5 711.5C894.663 687.605 877.903 674.949 882.5 651.5C885.592 635.732 890.883 619.873 900.5 607C918.426 583.004 960.5 569.5 960.5 569.5C960.5 569.5 982.425 551.329 996 540C1020.61 519.465 1069 502.5 1069 502.5L1097 456L1078.5 428H1045.5L1089 406.5C1089 406.5 1089.94 385.422 1083.5 374.5C1074.74 359.644 1045.5 352 1045.5 352C1045.5 352 1016.76 374.566 996 385C972.773 396.675 958.24 400.277 933 406.5C901.63 414.235 851 417.5 851 417.5C851 417.5 828.886 420.363 817.5 428C807.857 434.468 801.445 439.08 797.5 450C793.984 459.733 796.268 466.225 797.5 476.5C799.118 490.002 805.53 496.481 807 510C807.95 518.735 808.146 523.788 807 532.5C805.421 544.5 802.964 551.2 797.5 562C790.534 575.769 773 593 773 593L705 662" stroke="black" stroke-width="5"/>
<path d="M1329 394.5L1295 403.5L1278.5 431.5L1286.5 445.5L1307.5 454.5C1307.5 454.5 1341.06 459.362 1363.5 458.5C1412.85 456.605 1464.5 439 1464.5 439L1508.5 445.5H1528.5L1537.5 416.5H1490.5L1417 409L1368.5 399.5L1329 394.5Z" fill="white"/>
<path d="M1288.5 451.5C1288.5 451.5 1308.16 456.609 1321 458.5C1349.4 462.682 1365.87 460.591 1394.5 458.5C1431.03 455.831 1451.37 434.494 1487 443C1496.67 445.309 1515 448.5 1515 448.5" stroke="black" stroke-width="6"/>
<path d="M1292 401.5C1292 401.5 1304.9 399.286 1317 396.5C1357.83 387.098 1386.38 402.751 1428 407.5C1457.98 410.921 1474.83 413.256 1505 414C1517.49 414.308 1537 414 1537 414" stroke="black" stroke-width="6"/>
<path d="M1068.5 501C1068.5 501 1087.75 502.134 1100 501C1121.08 499.048 1131.44 489.672 1152.5 487.5C1167.07 485.997 1175.47 489.301 1190 487.5C1205.42 485.59 1213.71 482.255 1228.5 477.5C1260.69 467.152 1307 441 1307 441" stroke="black" stroke-width="5"/>
<path d="M1043.5 431.5C1043.5 431.5 1063.08 422.69 1076.5 421C1093.85 418.814 1103.54 425.004 1121 426C1139.13 427.035 1146.84 426 1165 426C1181.99 426 1194.31 429.15 1211 426C1237.5 421 1253.01 418.659 1275 404C1277.8 402.137 1282 399 1282 399" stroke="black" stroke-width="5"/>
<path d="M1078.5 422.5C1068.85 423.4 1062.5 421.832 1054 426.5C1047.34 430.157 1043.52 433.27 1040 440C1034.84 449.863 1036.86 457.822 1040 468.5C1044.46 483.659 1051.58 493.031 1066 499.5C1079.54 505.576 1104 499.5 1104 499.5C1104 499.5 1129.29 488.778 1146.5 487C1156.21 485.997 1161.75 487.58 1171.5 487C1184.29 486.238 1191.51 485.36 1204 482.5C1216.4 479.66 1223.06 476.888 1235 472.5C1257.15 464.362 1272.81 461.381 1294 451C1299.88 448.118 1310.5 451 1310.5 451L1305 422.5L1294 402.5L1279 406.5C1279 406.5 1238.83 423.488 1211.5 426.5C1194.61 428.361 1184.99 426.5 1168 426.5C1155.7 426.5 1148.8 426.798 1136.5 426.5C1113.8 425.951 1101.11 420.392 1078.5 422.5Z" fill="white"/>
<path d="M1146.5 249.5C1152.52 248.881 1162 249.5 1162 249.5C1162 249.5 1147.01 261.96 1142.5 273C1138.85 281.948 1139.73 287.862 1139 297.5C1138.18 308.404 1136.81 314.786 1139 325.5C1141.26 336.553 1146.07 341.626 1150.5 352C1155.66 364.072 1163.5 383 1163.5 383L1156.5 389C1156.5 389 1132.06 398.991 1115.5 401C1103.29 402.481 1096.13 403.061 1084 401C1070.66 398.733 1063.11 395.947 1051.5 389C1043.62 384.286 1036.71 382.898 1033 374.5C1028.41 364.094 1034.43 356.799 1038 346C1042.96 330.992 1048.12 322.725 1057.5 310C1065.04 299.771 1070.26 294.654 1080 286.5C1086.98 280.659 1099 273 1099 273C1099 273 1125.91 251.615 1146.5 249.5Z" fill="white" stroke="black" stroke-width="5"/>
<path d="M1069 331C1069 331 1068.48 339.082 1067 344C1065.96 347.437 1064.6 349.024 1065.5 352.5C1066.26 355.441 1067.16 355.586 1069 358C1071.28 360.985 1070.44 363.317 1073.5 365.5C1075.66 367.044 1077.55 367.481 1080 368.5C1083.56 369.977 1085.18 371.544 1088.5 373.5C1092.8 376.034 1099.5 380 1099.5 380L1094 371C1094 371 1089 366.104 1088 362C1087.31 359.154 1089.51 357.012 1088 354.5C1086.69 352.317 1083.51 353.339 1082.5 351C1082.5 351 1084.04 347.388 1083 345.5C1081.95 343.588 1078 343 1078 343C1078 343 1074.94 341.901 1073.5 340.5C1073.5 340.5 1071.83 338.146 1071 336.5C1069.98 334.457 1069 331 1069 331Z" fill="black"/>
<path d="M1090.5 349C1092.84 351.591 1100.5 352.5 1100.5 352.5V351C1100.5 348 1094.8 347.448 1094 346C1092.58 343.44 1094 338.5 1094 338.5C1094 338.5 1093.16 335.231 1091.5 335C1090.2 334.82 1087.39 340.5 1088.5 338.5C1090.3 335.259 1088.5 344.5 1088.5 344.5C1088.5 344.5 1089.56 347.956 1090.5 349Z" fill="black"/>
<path d="M1138.5 350.5C1136.75 346.675 1134 340 1134 340C1134 340 1132.86 344.535 1132.5 347.5C1131.94 352.152 1131.15 355.011 1132.5 359.5C1133.76 363.703 1135.11 366.209 1138.5 369C1141.61 371.561 1144.02 372.384 1148 373C1150.51 373.388 1154.5 373 1154.5 373C1154.5 373 1150.16 368.904 1148 367C1145.68 364.961 1142.63 360.122 1141 357.5C1138.56 353.569 1140.43 354.709 1138.5 350.5Z" fill="black"/>
<path d="M1102.5 287C1104.35 283.605 1109.5 280 1109.5 280C1109.5 280 1109.84 286.241 1109.5 288.5C1108.9 292.437 1110.63 295.261 1112 299C1113.38 302.775 1115.6 303.278 1118 306.5C1119.74 308.826 1121.37 309.598 1123 312C1123.64 312.942 1124.5 314.5 1124.5 314.5V315.5C1124.5 315.5 1120.02 316.556 1118 315.5C1114.82 313.835 1112.48 314.007 1109.5 312C1106.18 309.76 1104.33 308.065 1102.5 304.5C1101.2 301.97 1100.76 300.332 1100.5 297.5C1100.12 293.343 1100.5 290.666 1102.5 287Z" fill="black"/>
<path d="M686 747C697.492 713.151 705 692 705 692C705 692 774.805 676.096 814.5 692C849.574 706.053 887.5 755.5 887.5 755.5C887.5 755.5 882.416 817.4 867.5 853.5C852.796 889.088 838.315 906.556 813.5 936C794.102 959.017 777.281 966.477 758.5 990C747.551 1003.71 733 1027 733 1027C733 1027 740.555 1057.29 740 1077C739.328 1100.86 732.511 1113.53 726 1136.5C712.46 1184.26 680 1255 680 1255L639 1381L622.5 1462L598 1500L550 1524H509.5L538.5 1460.5L564 1400.5L613 1277.5L637.5 1155L650.5 1027C650.5 1027 662.517 966.238 675 932.5C686.057 902.618 677.32 877.157 686 846.5C696.479 809.493 673.635 783.42 686 747Z" fill="white" stroke="white" stroke-width="5"/>
<path d="M615 1424C622.165 1416.14 637.5 1404 637.5 1404L626.5 1459.5C626.5 1459.5 614.543 1487.83 600.5 1501C586.043 1514.56 555 1523.5 555 1523.5C555 1523.5 508.632 1543.94 506.5 1526.5C506.239 1524.37 506.5 1520 506.5 1520L534.5 1467C534.5 1467 530.791 1487.09 538.5 1495C550.875 1507.7 579.5 1475.5 579.5 1475.5C579.5 1475.5 598.54 1442.05 615 1424Z" fill="black"/>
<path d="M509 1520.5L534 1468.5L611.5 1275L632.5 1155" stroke="black" stroke-width="4"/>
<path d="M989.5 731C964.912 705.272 961.505 680.806 933 659.5C925.191 653.663 921.155 649.351 912 646C902.037 642.353 885 643 885 643C885 643 889.735 618.084 898.5 605C913.895 582.019 938.336 586.811 959.5 569C974.827 556.101 994.5 531.5 994.5 531.5C994.5 531.5 975.262 477.339 948.5 455C929.729 439.332 916.514 431.602 892.5 427C875.816 423.803 858.656 417.161 842 420.5C827.636 423.379 819.853 426.135 809.5 436.5C799.404 446.608 796.774 448.716 796.5 463C796.212 478.012 809.5 513 809.5 513L800.5 564L746 619.5L685.5 687.5L649.5 762L615.5 897.5L649.5 1022C649.5 1022 712.464 1140.17 695 1216C688.302 1245.08 674.451 1258.03 665.5 1286.5C656.69 1314.52 649.5 1360 649.5 1360C649.5 1360 664.96 1356.37 671.5 1362C676.75 1366.52 676.382 1371.77 678 1378.5C681.335 1392.38 676 1415 676 1415L674 1441.5C674 1441.5 674.699 1467.56 684 1480C689.643 1487.55 694.024 1491.38 702.5 1495.5C709.91 1499.1 714.771 1500.07 723 1500.5C742.229 1501.51 749.98 1486.77 768.5 1481.5C779.44 1478.39 786.219 1479.13 797 1475.5C811.404 1470.66 831.5 1457.5 831.5 1457.5C831.5 1457.5 854.268 1441.08 868 1429.5C881.625 1418.01 901.5 1398.5 901.5 1398.5L928.5 1372C928.5 1372 938.426 1377.77 945.5 1379C957.916 1381.16 965.18 1376.37 977 1372C1006.01 1361.28 1015.93 1343.16 1038 1321.5C1063.63 1296.36 1074.6 1279.05 1097 1251C1125.8 1214.93 1168 1156.5 1168 1156.5L1213 1101L1262.5 1046L1325 980.5L1394.5 919.5C1394.5 919.5 1390.44 915.012 1387.5 912.5C1375.92 902.604 1362.84 907.664 1351.5 897.5C1343.99 890.774 1338.6 886.357 1336.5 876.5C1335.4 871.344 1335.67 868.206 1336.5 863C1337.55 856.41 1339.67 853.042 1342.5 847C1351.85 827.056 1365.27 821.222 1379 804C1409.63 765.589 1424.55 742.216 1450.5 700.5C1473.59 663.378 1505.5 603 1505.5 603L1525 562C1525 562 1531.01 551.466 1525 546.5C1512.35 536.049 1509.52 566.913 1499 579.5C1481.1 600.914 1470.26 612.287 1450.5 632C1431.33 651.128 1420.96 662.471 1399.5 679C1379.25 694.601 1366.01 700.685 1344.5 714.5C1307.49 738.27 1249.5 775 1249.5 775C1249.5 775 1223.88 789.766 1206 795.5C1180.52 803.672 1138 804 1138 804C1138 804 1114.88 803.567 1100.5 800.5C1084.07 796.997 1075.12 793.324 1060 786C1044.2 778.347 1035.84 772.797 1022 762C1008.17 751.21 1001.62 743.68 989.5 731Z" fill="url(#paint0_linear)" fill-opacity="0.2" stroke="black"/>
<path d="M996 563L967 569L948 575L940.5 580L983 583C983 583 1007.89 572.786 1001 566C999.378 564.402 996 563 996 563Z" fill="white" stroke="black" stroke-width="5"/>
<path d="M448 196.5L470.5 190L595 157C595 157 604.918 153.763 611.5 153.5C613.061 153.438 613.953 153.72 615.5 153.5C618.7 153.045 620.396 151.915 623 150C625.002 148.528 625.632 147.139 627.5 145.5C629.701 143.568 633.5 141 633.5 141C633.5 141 634.657 140.254 635 139.5C635.914 137.489 632.767 136.825 631 135.5C627.048 132.536 623.679 133.084 619 131.5C613.326 129.579 609.907 129.077 604.5 126.5C598.876 123.82 594.884 122.871 591 118C588.55 114.927 588.031 112.619 586.5 109C582.663 99.9273 580.5 84.5 580.5 84.5L572 43L565 7.99997C565 7.99997 564.242 4.69741 563 2.99997C558.965 -2.51614 552.318 2.52745 545.5 2.99997C534.611 3.75468 528.733 6.0111 518 7.99997C507.645 9.91887 501.766 10.6495 491.5 13C483.236 14.8921 478.591 15.9679 470.5 18.5C462.364 21.0461 458.052 23.2005 450 26C443.584 28.2305 437.128 25.7577 433.5 31.5C432.279 33.4322 431.387 34.7173 431.5 37C431.634 39.7093 435 43 435 43L444 74L454 106C454 106 457.66 118.347 458.5 126.5C459.26 133.881 458.5 138.08 458.5 145.5C458.5 150.967 460.047 154.256 458.5 159.5C456.83 165.162 453.296 167.103 450 172C446.855 176.672 445.859 179.897 442 184C439.054 187.132 433.951 186.724 433.5 191C433.266 193.214 433.689 194.701 435 196.5C435.898 197.732 436.627 198.337 438 199C441.625 200.75 448 196.5 448 196.5Z" fill="black"/>
<path d="M602.5 147L591 140L546.5 130L498.5 143.5L474 163.5C474 163.5 468.195 175.63 467.5 184C467.242 187.113 467.277 188.884 467.5 192C467.869 197.157 468.684 200 470 205C471.257 209.777 471.975 212.494 474 217C475.361 220.028 476.235 221.688 478 224.5C480.076 227.808 481.495 229.504 484 232.5C486.57 235.573 488.53 236.845 491 240C493.17 242.772 493.814 244.741 496 247.5C497.803 249.775 499.066 250.835 501 253C504.782 257.233 508.002 258.903 510.5 264C513.538 270.199 513 281.5 513 281.5L591 275C591 275 591 271.648 591 269.5C591 268.524 591 267 591 267C591 267 594.154 264.696 596.5 264C599.683 263.056 601.681 264 605 264C609.101 264 611.442 264.586 615.5 264C619.11 263.479 624.5 261.5 624.5 261.5C624.5 261.5 628.096 260.232 630.5 260C634.431 259.621 640.5 261.5 640.5 261.5C640.5 261.5 647.563 262.802 652 264C655.756 265.014 661.5 267 661.5 267L667.5 269.5C667.5 269.5 671.147 271.036 672 269.5C672.474 268.647 672 267 672 267C672 267 669.145 265.325 667.5 264C664.809 261.833 661.5 257.5 661.5 257.5C661.5 257.5 659.745 254.706 658.5 253C656.864 250.758 655.858 249.562 654 247.5C651.967 245.243 650.576 244.217 648.5 242C645.185 238.459 643.316 236.449 640.5 232.5C638.361 229.501 637.339 227.693 635.5 224.5C633.843 221.623 632.227 220.239 631.5 217C630.901 214.333 631.5 212.734 631.5 210C631.5 207.071 631.5 202.5 631.5 202.5C631.5 202.5 633.852 200.547 635.5 199.5C638.229 197.768 640.06 197.342 643 196C646.499 194.403 648.847 194.203 652 192C653.927 190.653 656.5 188 656.5 188C656.5 188 657.009 185.477 656.5 184C655.734 181.777 654.27 180.611 652 180C650.68 179.645 648.5 180 648.5 180H643C641.047 180 639.922 180.344 638 180C635.248 179.507 631.5 177 631.5 177C631.5 177 627.044 174.855 624.5 173C621.932 171.127 620.755 169.74 618.5 167.5C616.049 165.066 614.408 163.88 612.5 161C611.053 158.816 610.896 157.216 609.5 155C607.287 151.488 602.5 147 602.5 147Z" fill="black" stroke="black"/>
<path d="M550 892.5V807L613 729L688 807V876L676.5 960L658 1050L643.5 1134L624 1191.5H597.5L568 1180L550 1165H525.5L517 1180L507.5 1209.5L489 1247L484.5 1280L476 1322.5L484.5 1344L476 1363.5L484.5 1386.5L496 1411L507.5 1435.5L517 1454L525.5 1472L507.5 1463.5H496L489 1472L484.5 1486.5L489 1501.5L484.5 1521L471 1509.5L450 1486.5L432 1472L412 1454V1435.5V1411L399 1386.5L412 1355.5L423.5 1322.5L432 1294.5V1247L441.5 1180L432 1134V1089.5L450 1066.5L471 1050H496L517 1078H550L584.5 1066.5V1050V1037L568 969.5L550 920.5V892.5Z" fill="black"/>
<path d="M695.5 832L552.5 841.5C552.5 841.5 537.029 816.197 530.5 798.5C525.941 786.144 523.391 779.033 521.5 766C519.341 751.121 518.377 742.207 521.5 727.5C524.803 711.945 530.954 704.497 538.5 690.5C543.569 681.097 547.227 676.291 552.5 667C558.838 655.832 565.88 650.665 568 638C569.096 631.452 568 627.639 568 621C568 621 570.231 609.077 568 602C565.166 593.011 552.5 583.5 552.5 583.5C552.5 583.5 544.15 560.879 538.5 546.5C532.095 530.199 532.113 518.932 521.5 505C514.551 495.878 508.045 493.172 500 485C485.512 470.284 477.719 461.503 466 444.5C454.688 428.088 451.768 416.774 441 400C427.963 379.69 418.306 369.937 404 350.5C392.98 335.527 387.474 326.628 376 312C360.196 291.853 333 262.5 333 262.5L367 182L387 197.5L424 234.5L449 262.5L512 329V312V290V262.5H581.5L592.5 276C592.5 276 589.938 302.21 600.5 312L614 319.5C614 319.5 637.326 328.782 653 329C669.624 329.231 677.965 321.236 694.5 319.5C708.87 317.991 717.653 315.37 731.5 319.5C743.759 323.156 748.389 330.161 759.5 336.5C769.517 342.215 774.799 346.201 785.5 350.5C799.475 356.114 808.529 355.327 823 359.5C834.451 362.802 840.553 365.685 852 369C866.284 373.137 876.734 369.593 889 378C898.26 384.346 907.5 400 907.5 400C907.5 400 908.884 443.924 889 454C876.111 460.532 866.449 454 852 454C840.675 454 834.261 455.201 823 454C807.978 452.398 785.5 444.5 785.5 444.5C785.5 444.5 769.664 438.983 759.5 435.5C745.072 430.555 722.5 423 722.5 423C722.5 423 716.805 430.183 714.5 435.5C708.752 448.757 714.5 472.5 714.5 472.5L722.5 505C722.5 505 722.5 530.293 722.5 546.5C722.5 568.174 722.5 602 722.5 602C722.5 602 716.633 630.198 714.5 648.5C709.957 687.484 714.5 749 714.5 749L695.5 832Z" fill="black"/>
<path d="M549 890.5C549 860.625 549 814 549 814L609 715.5L700.5 799.5L672 982L642 1129.5L634 1168.5L622 1191C622 1191 614.064 1191.36 609 1191C600.673 1190.41 595.966 1189.5 588 1187C579.828 1184.44 575.083 1182.82 568 1178C563.306 1174.81 557 1168.5 557 1168.5C557 1168.5 549.89 1165.07 545 1164C537.75 1162.42 526 1164 526 1164L517 1187C517 1187 505.516 1210.85 499 1226.5C494.888 1236.37 492.232 1241.8 489 1252C480.899 1277.56 479.5 1320 479.5 1320C479.5 1320 485.867 1334.83 484.5 1344.5C483.326 1352.8 475.5 1364 475.5 1364C475.5 1364 482.233 1385.71 489 1398.5C493.763 1407.5 498.944 1411.16 503 1420.5C506.397 1428.32 505.078 1433.93 509 1441.5C512.646 1448.54 517.864 1450.45 521.5 1457.5C523.795 1461.95 526 1469.5 526 1469.5L509 1463.5H499C499 1463.5 486.242 1470.18 484.5 1478C483.006 1484.7 488.523 1488.15 489 1495C489.65 1504.32 484.5 1518.5 484.5 1518.5C484.5 1518.5 460.936 1499.76 447.5 1486C439.287 1477.59 427.5 1463.5 427.5 1463.5C427.5 1463.5 415.266 1451.49 412 1441.5C408.542 1430.92 414.389 1423.87 412 1413C410.714 1407.15 409.888 1403.75 407 1398.5C404.383 1393.74 398.5 1387.5 398.5 1387.5C398.5 1387.5 409.868 1358.39 416.5 1339.5C423.373 1319.92 428.072 1309.15 433 1289C442.502 1250.14 445.333 1226.91 442.5 1187C440.888 1164.3 434.526 1152.21 433 1129.5C431.94 1113.72 427.375 1103.78 433 1089C436.602 1079.53 440.817 1075.11 447.5 1067.5C453.889 1060.23 457.154 1054.93 466 1051C477.776 1045.77 487.625 1044.94 499 1051C509.479 1056.58 505.365 1073.14 517 1075.5C520.444 1076.2 522.485 1075.5 526 1075.5C534.982 1075.5 540.081 1076.56 549 1075.5C565.003 1073.59 588 1062 588 1062C588 1062 585.188 1041.55 583 1028.5C578.248 1000.17 578.698 983.155 568 956.5C562.014 941.587 552.187 935.751 549 920C546.715 908.708 549 902.02 549 890.5Z" fill="black"/>
<path d="M583 166.5V177C583 177 575.671 180.052 573 184C572.021 185.446 571.489 186.323 571 188C570.235 190.624 571 192.266 571 195C571 203.982 570.527 209.03 571 218C571.341 224.461 572.169 228.038 572.5 234.5C572.93 242.885 572.5 247.604 572.5 256C572.5 264.592 573.118 269.431 572.5 278C572.132 283.097 571.763 285.947 571 291C570.348 295.317 570.107 297.776 569 302C567.575 307.438 566.381 310.407 564 315.5C562.112 319.537 560.793 321.678 558.5 325.5C555.1 331.166 552.893 334.161 549 339.5C545.801 343.886 544.211 346.537 540.5 350.5C535.955 355.355 527.5 361.5 527.5 361.5L521.5 368.5L527.5 365C527.5 365 535.701 359.242 540.5 355C544.845 351.16 547.281 348.949 551 344.5C555.515 339.098 557.595 335.662 561 329.5C563.408 325.143 564.487 322.553 566.5 318C568.376 313.755 569.492 311.389 571 307C572.386 302.967 572.999 300.645 574 296.5C575.628 289.76 576.385 285.906 577 279C577.676 271.415 577 259.5 577 259.5C577 259.5 577 242.13 577 231C577 221.627 577 216.373 577 207C577 200.556 573.07 195.606 577 190.5C579.247 187.58 581.356 186.045 585 185.5C586.352 185.298 587.185 185.126 588.5 185.5C590.116 185.96 590.701 186.935 592 188C593.922 189.576 594.243 191.459 596.5 192.5C600.291 194.248 603.574 192.885 607 190.5C610.38 188.146 611.589 185.517 612.5 181.5C613.644 176.458 611.86 173.324 610 168.5C608.011 163.344 606.94 159.791 602.5 156.5C600.395 154.94 599.037 154.155 596.5 153.5C593.475 152.719 591.398 152.332 588.5 153.5C585.808 154.585 584.217 155.865 583 158.5C581.69 161.336 583 166.5 583 166.5Z" fill="white"/>
<path d="M347 272.5L367 247L375.5 218.5L397 207C397 207 380.851 186.093 367 177C349.14 165.275 335.515 165.966 315 160C289.125 152.475 273.892 150.966 248 143.5C214.061 133.713 162.5 114 162.5 114C162.5 114 137.286 112.237 131.5 123.5L129 134C129 134 128.407 147.85 130 156.5L132.5 166.5C132.5 166.5 134.426 172.975 136 177C137.401 180.582 140 186 140 186C154.471 194.302 163.94 197.48 180.5 199.5C189.028 200.54 202.961 206.047 211.5 207C226.353 208.657 248 218.5 248 218.5L273.5 232L302 247L347 272.5Z" fill="black"/>
<g filter="url(#filter0_d)">
<path d="M101.5 189.5C111.513 179.339 133 171 133 171L114.5 161C114.5 161 110.299 159.925 108 161C106.619 161.646 106.146 162.494 105 163.5C100.223 167.695 97.7011 170.331 94 175.5C90.4888 180.404 88.228 183.222 86.5 189C85.2578 193.154 84.9064 195.665 85 200C85.0943 204.365 87 211 87 211C87 211 94.3916 196.713 101.5 189.5Z" fill="white" stroke="black" stroke-width="5"/>
</g>
<path d="M102.5 135L113 161L142 185L131.5 161L129.5 142L131.5 124.5L160 116.5C160 116.5 118.74 107.678 96.5 93.5C83.4084 85.1544 79.6263 75.4408 66 68C57.694 63.4644 43.5 59 43.5 59L49 68L51 76.5L40 71H31C31 71 36.0218 78.1295 40 82C44.7024 86.5752 48.1461 88.2077 53.5 92C58.3172 95.4122 66 100.5 66 100.5L69.5 107.5C69.5 107.5 60.9671 108.412 55.5 109C48.2749 109.777 44.1696 109.816 37 111C26.0663 112.806 9.5 118 9.5 118C9.5 118 19.0316 120.694 24.5 122C31.361 123.638 34.3022 124.091 41 124.5C54.7317 125.339 59.7461 122.694 73.5 123C80.1631 123.148 84.3997 121.816 90.5 124.5C96.1997 127.008 102.5 135 102.5 135Z" fill="white" stroke="black" stroke-width="5"/>
<path d="M979.5 507.5C966.366 487.035 957.999 476.226 944.5 456C934.248 440.639 918.5 416.5 918.5 416.5L905 396C905 396 896.161 381.86 887 378C874.454 372.714 861.885 373.138 852.5 383C845.251 390.617 845.5 409 845.5 409C845.5 409 850.632 442.234 861 460.5C866.244 469.739 870.926 473.785 877 482.5C884.494 493.252 887.269 500.302 895.5 510.5C904.692 521.889 912.507 525.861 922 537C932.999 549.905 931.801 564.983 947 572.5C958.425 578.15 966.903 577.442 979.5 575.5C984.274 574.764 987.654 575.423 991.5 572.5C995.126 569.744 995.668 566.67 997.5 562.5C999.539 557.859 1000.84 555.067 1001 550C1001.24 542.346 997.679 538.467 994.5 531.5C989.911 521.445 985.47 516.802 979.5 507.5Z" fill="black" stroke="black"/>
<path d="M515.315 268.216C515.315 268.216 504.168 269.284 497 270C479.43 271.754 458.818 285.14 458.818 285.14C458.818 285.14 450.819 285.533 445.785 284.765C439.924 283.87 435.005 282.203 429.5 280C423.474 277.588 419.133 275.055 412.933 273.132C404.234 270.434 389.645 271.847 389.645 271.847C389.645 271.847 406.922 277.629 416.177 284.389C420.949 287.875 427.473 294.459 427.473 294.459C427.473 294.459 421.639 296.421 418.5 297.5C412.553 299.543 404.439 299.116 398.306 300.5C390.628 302.233 385.768 307.875 385.768 307.875L428.219 305.836C428.219 305.836 426.827 308.287 425.091 311C419.287 320.071 405.547 310.814 398.306 318.786C396.599 320.665 394.66 324.167 394.66 324.167L432.944 322.93C432.944 322.93 426.305 329.189 425.091 334.519C424.163 338.594 424.683 341.15 425.704 345.202C427.327 351.643 434.609 359.692 434.609 359.692C434.609 359.692 430.863 348.701 432.248 341.785C433.556 335.25 435.603 331.344 440.542 326.87C448.524 319.64 457.073 319.506 467.624 321.665C471.382 322.434 476.891 324.924 476.891 324.924L477.678 330.893C477.678 330.893 468.129 342.246 464.215 350.762C461.325 357.05 458.818 367.64 458.818 367.64C458.818 367.64 468.608 353.71 477.956 349.201C481.473 347.504 491.15 333.564 494 330.893C502.5 322.93 500.06 320.664 510 311C516.997 304.197 527.543 301.869 527.543 301.869" stroke="black" stroke-width="6"/>
<path d="M487.5 272.5C493.879 271.757 514 269.47 514 269.47L524.926 299.492C524.926 299.492 511.798 307.858 504.841 314.872C495.352 324.438 497.488 337.307 485.488 343.433C482.01 345.209 479.902 345.675 476.5 347.593C470.655 350.889 464.428 359.362 464.428 359.362C464.428 359.362 465.978 353.865 467.407 350.509C470.925 342.245 479.457 340.966 480 332C480.226 328.276 481.148 324.969 478.854 322.027C476.232 318.664 468.479 318.62 468.479 318.62C468.479 318.62 446.781 316.226 438.339 324.773C433.488 329.685 434.5 326.703 433.295 333.5C432.821 336.171 430.124 347.593 430.124 347.593C430.124 347.593 428.453 345.361 427.934 343.694C426.948 340.524 425.834 332.212 426.672 329C428.546 321.821 435 318.62 435 318.62C435 318.62 442.684 309.752 430.592 314.872C418.5 319.993 402 323 402 323C402 323 403.7 314.872 423.5 311C428.233 310.074 429.208 303.486 429.208 303.486L413.573 305.459L392 305.459C392 305.459 397.722 302.458 401 301.5C406.927 299.767 414.523 301.042 420.5 299.492C426.081 298.043 433.295 294.78 433.295 294.78C433.295 294.78 429.223 292.096 426.672 290.293C421.4 286.567 419.24 283.302 413.573 280.209C408.46 277.418 399.606 274.973 399.606 274.973C399.606 274.973 407.508 274.594 412.359 275.762C419.235 277.418 416.874 277.736 423.5 280.209C428.939 282.239 430.753 285.678 436.5 286.5C441.971 287.282 447.489 286.914 453 286.5C470.465 285.188 470.104 274.525 487.5 272.5Z" fill="white"/>
<defs>
<filter id="filter0_d" x="78.4858" y="158.021" width="64.4622" height="67.7096" filterUnits="userSpaceOnUse" color-interpolation-filters="sRGB">
<feFlood flood-opacity="0" result="BackgroundImageFix"/>
<feColorMatrix in="SourceAlpha" type="matrix" values="0 0 0 0 0 0 0 0 0 0 0 0 0 0 0 0 0 0 127 0"/>
<feOffset dy="4"/>
<feGaussianBlur stdDeviation="2"/>
<feColorMatrix type="matrix" values="0 0 0 0 0 0 0 0 0 0 0 0 0 0 0 0 0 0 0.25 0"/>
<feBlend mode="normal" in2="BackgroundImageFix" result="effect1_dropShadow"/>
<feBlend mode="normal" in="SourceGraphic" in2="effect1_dropShadow" result="shape"/>
</filter>
<linearGradient id="paint0_linear" x1="1091" y1="427" x2="1091" y2="1500.5" gradientUnits="userSpaceOnUse">
<stop offset="0.324692" stop-color="#FA1A1A"/>
<stop offset="1" stop-color="white" stop-opacity="0"/>
</linearGradient>
</defs>
</svg>
