<svg width="670" height="449" viewBox="0 0 670 449" fill="none" xmlns="http://www.w3.org/2000/svg">
<path d="M1 337C1 337 60.9789 373.175 102 391C157.853 415.27 251 437 251 437C316.608 441.296 353.392 443.704 419 448C474.677 446.289 505.091 439.775 557 412C585.715 385.053 600.973 367.48 622 318C644.863 284.914 653.812 261.387 664 212C673.567 167.308 671.162 144.107 649 107C620.677 62.6851 600.069 41.792 546 19C461.117 -2.91526 420.68 -5.14441 365 14C323.76 26.5472 304.11 33.9133 279 48C254.693 72.146 256.809 84.797 267 107C278.853 131.261 287.628 137.455 304 146C326.344 158.439 339.825 156.133 365 141C388.911 113.705 392.453 95.1749 377 55C355.448 33.9498 340.09 23.265 284 14C195.929 9.92526 157.835 17.6063 102 42C27.5998 69.3515 14.6939 95.4941 26 155C34.5333 195.618 54.3053 210.638 102 231C166.08 242.911 182.136 263.967 188 318C193.864 372.033 251 376 251 376" stroke="transparent"/>
</svg>
