<svg width="1278" height="1537" viewBox="0 0 1278 1537" fill="none" xmlns="http://www.w3.org/2000/svg">
<g id="Frame 1">
<g id="rightLegG">
<path id="wholelegright" d="M225 696.983C236.492 663.134 263 631.483 263 631.483C263 631.483 289.729 614.887 306 620.483C341.73 632.772 366.525 648.317 379 683.983C391.896 720.853 373.916 745.883 359 781.983C344.296 817.571 329.815 835.039 305 864.483C285.602 887.5 250 918.483 250 918.483C250 918.483 228.923 938.501 224.5 955.483C219.53 974.563 232.055 985.774 231.5 1005.48C230.828 1029.34 217.5 1064.98 217.5 1064.98C217.5 1064.98 180.235 1141.55 162.5 1192.98C147.12 1237.59 140.187 1263.31 130.5 1309.48C123.916 1340.87 117 1390.48 117 1390.48C117 1390.48 105.101 1418.56 91 1430.98C75.1874 1444.92 62.2528 1448.81 41.5 1452.48C25.9261 1455.24 1 1452.48 1 1452.48V1449.48L58 1330.98L105 1206.48C105 1206.48 121.805 1131.89 129 1083.48C136.387 1033.78 128.455 1003.87 142 955.483C151.698 920.841 177.5 870.483 177.5 870.483L203 792.983C203 792.983 212.635 733.403 225 696.983Z" fill="white" stroke="black"/>
<path id="shoeright" d="M106.5 1352.48C106.5 1352.48 125.5 1324.48 126 1333.48C126.5 1342.48 124.424 1367.14 117 1386.98C110.253 1405.02 92 1429.48 92 1429.48C92 1429.48 65.8639 1447.74 46.5 1451.98C29.3331 1455.74 1.5 1451.98 1.5 1451.98V1446.48L26 1395.48C26 1395.48 22.2906 1415.57 30 1423.48C42.3748 1436.18 71 1403.98 71 1403.98L106.5 1352.48Z" fill="black" stroke="black"/>
</g>
<g id="leftLegG">
<path id="wholelegleft" d="M540.256 1424.61C541.695 1442.91 536.46 1471.47 536.46 1471.47C536.46 1471.47 519.737 1502.05 502.834 1515.62C490.04 1525.88 465.824 1535.47 465.824 1535.47C465.824 1535.47 464.714 1454.16 460.2 1402.31C455.64 1349.92 453.811 1320.18 442.488 1268.82C431.9 1220.81 405.69 1148.41 405.69 1148.41C405.69 1148.41 368.462 1079.08 357.78 1030.56C350.42 997.13 353.755 977.247 349.006 943.347C344.277 909.591 333.558 857.444 333.558 857.444L307.826 764.007C307.826 764.007 276.639 709.234 294.979 682.951C306.934 665.816 342.122 657.657 342.122 657.657C342.122 657.657 408.698 652.512 436.878 677.746C465.749 703.6 462.555 733.872 466.671 772.408C470.829 811.342 457.242 872.226 457.242 872.226C457.242 872.226 440.452 915.294 435.155 944.222C431.789 962.602 425.191 973.748 430.037 991.794C434.951 1010.09 450.383 1013.86 458.899 1030.78C469.565 1051.98 469.252 1066.38 474.015 1089.63C485.061 1143.53 477.237 1175.71 486.333 1229.98C494.671 1279.72 502.123 1307.23 516.791 1355.49C525.08 1382.77 538.021 1396.19 540.256 1424.61Z" fill="white" stroke="black"/>
<path id="shoeleft" d="M478.754 1495.06C468.195 1491.4 463.077 1471.13 463.077 1471.13L465.599 1527.65L469.617 1535.14L493.409 1522.37L513.07 1503.48L536.256 1472.15L538.89 1454.85C538.89 1454.85 540.314 1435.41 538.87 1423.08C536.354 1401.63 521.475 1370.57 521.475 1370.57C521.475 1370.57 515.735 1386.63 513.07 1397.21C507.038 1421.16 505.932 1460.05 505.932 1460.05C505.932 1460.05 495.11 1500.72 478.754 1495.06Z" fill="black" stroke="black"/>
</g>
<g id="bodyTopG">
<g id="rightArmG">
<g id="rightLowArmG">
<path d="M226.896 611.829C238.242 609.167 249.101 607.787 256.295 616.956C261.363 623.415 262.499 629.857 259.946 637.661C250.28 652.606 245.046 661.108 235.194 675.931C224.848 691.499 208.18 715.443 208.18 715.443C208.18 715.443 161.311 749.558 145.325 781.32C140.613 790.683 142.316 798.4 135.362 806.242C128.101 814.429 120.911 822.842 110.561 819.286C106.011 817.723 98.8187 821.367 100.802 811.764C102.786 802.162 138.903 759.21 159.06 722.961C178.437 688.114 202.29 630.465 202.29 630.465C202.29 630.465 215.16 614.582 226.896 611.829Z" fill="white"/>
<path d="M208.18 715.443C208.18 715.443 161.311 749.558 145.325 781.32C140.613 790.683 142.316 798.4 135.362 806.242C128.101 814.429 120.911 822.842 110.561 819.286C106.011 817.723 98.8187 821.367 100.802 811.764C102.786 802.162 138.903 759.21 159.06 722.961C178.437 688.114 202.29 630.465 202.29 630.465C202.29 630.465 215.16 614.582 226.896 611.829C238.242 609.167 249.101 607.787 256.295 616.956C261.363 623.415 262.499 629.857 259.946 637.661M208.18 715.443C208.18 715.443 224.848 691.499 235.194 675.931C245.046 661.108 250.28 652.606 259.946 637.661M208.18 715.443C208.18 715.443 239.73 668.036 259.946 637.661" stroke="#E5E5E5" stroke-width="3"/>
</g>
<g id="rightUpArmG">
<path d="M281.704 388.937L291.595 377.578C291.595 377.578 314.15 361.938 328.432 366.57C347.367 372.712 346.983 393.579 348.497 413.427C349.433 425.693 344.583 444.682 344.583 444.682L342.11 450.973C336.93 470.445 326.935 490.143 324.12 498.199L319.626 534.085C319.519 535.048 319.408 535.943 319.292 536.753C318.425 542.799 312.421 554.271 305.617 566.091L302.647 572.462L294.684 584.566C281.621 606.422 272.844 617.764 258.851 639.035C252.568 640.009 248.546 639.505 242.697 637.012C235.173 633.805 229.168 630.544 227.577 622.521C226.703 618.116 228.922 612.426 229.48 607.97C245.128 584.734 262.194 544.72 262.194 544.72C272.109 513.245 277.121 493.15 272.695 460.875C266.336 443.179 265.848 430.909 270.782 412.764C273.467 402.886 281.704 388.937 281.704 388.937Z" fill="white"/>
<path d="M272.695 460.875C266.336 443.179 265.848 430.909 270.782 412.764C273.467 402.886 281.704 388.937 281.704 388.937L291.595 377.578C291.595 377.578 314.15 361.938 328.432 366.57C347.367 372.712 346.983 393.579 348.497 413.427C349.433 425.693 344.583 444.682 344.583 444.682L324.387 496.071L319.292 536.753M272.695 460.875C277.121 493.15 272.109 513.245 262.194 544.72M272.695 460.875C281.503 493.698 262.194 544.72 262.194 544.72M262.194 544.72C262.194 544.72 245.128 584.734 229.48 607.97C228.922 612.426 226.703 618.116 227.577 622.521C229.168 630.544 235.173 633.805 242.697 637.012C248.546 639.505 252.568 640.009 258.851 639.035M258.851 639.035C275.954 613.037 302.647 572.462 302.647 572.462L319.292 536.753M258.851 639.035C272.844 617.764 281.621 606.422 294.684 584.566C304.535 568.085 317.962 546.03 319.292 536.753M319.292 536.753C320.622 527.477 321.24 507.216 323.851 499.002C326.463 490.788 338.893 466.997 343.528 445.056C346.273 432.065 347.753 411.318 347.753 411.318" stroke="#E5E5E5" stroke-width="3"/>
</g>
<g id="rightHandG">
<path d="M136.555 901.335L131.252 898.801C131.252 898.801 128.855 916.98 130.548 928.428C131.67 936.014 135.587 947.406 135.587 947.406C135.587 947.406 127.234 939.547 124.104 933.104C120.129 924.921 120.259 910.129 120.259 910.129L117.245 897.047C117.245 897.047 114.978 910.051 114.562 918.474C113.897 931.912 116.995 952.84 116.995 952.84L111.728 941.106C111.728 941.106 106.49 926.91 105.943 917.395C105.467 909.094 108.092 896.212 108.092 896.212C108.092 896.212 94.0109 901.285 87.7368 907.992C82.6924 913.385 79.2789 923.487 77.8232 928.465L77.0274 931.392C77.0274 931.392 77.1439 930.905 77.3725 930.063L79.1509 923.213L83.3592 908.107C85.6288 904.844 86.9136 902.948 87.9158 901.556L90.2205 898.242L96.3424 892.146L102.394 879.014L104.594 870.197C104.703 869.605 104.797 869.031 104.872 868.491C104.921 868.142 104.963 867.797 104.999 867.454C106.553 852.69 96.8582 843.809 98.051 828.668C98.5869 821.866 101.223 812.146 101.223 812.146C101.223 812.146 108.8 805.522 114.795 804.097C121.861 802.417 127.839 801.562 133.249 806.408C138.517 811.127 136.007 817.095 137.775 823.943L154.913 842.069L161.34 848.866L163.218 857.322L180.451 879.686C180.451 879.686 175.22 880.363 172.017 879.594C168.748 878.81 164.323 875.734 164.323 875.734C157.062 870.922 150.49 858.236 150.49 858.236C150.49 858.236 145.569 856.615 142.921 857.934C140.185 859.297 138.578 864.445 138.578 864.445C138.578 864.445 134.077 878.988 138.055 886.732C140.585 891.658 144.153 892.856 148.061 896.78L161.779 894.044L182.326 889.947C182.326 889.947 169.848 899.145 160.702 902.645C155.451 904.655 152.396 907.285 146.828 906.497C142.382 905.868 136.555 901.335 136.555 901.335Z" fill="white"/>
<path d="M104.887 860.226L105.015 868.508L102.394 879.014C102.394 879.014 98.7058 887.018 96.3424 892.146M182.326 889.947C182.326 889.947 169.848 899.145 160.702 902.645C155.451 904.655 152.396 907.285 146.828 906.497C142.382 905.868 136.555 901.335 136.555 901.335L131.252 898.801C131.252 898.801 128.855 916.98 130.548 928.428C131.67 936.014 135.587 947.406 135.587 947.406C135.587 947.406 127.234 939.547 124.104 933.104C120.129 924.921 120.259 910.129 120.259 910.129L117.245 897.047C117.245 897.047 114.978 910.051 114.562 918.474C113.897 931.912 116.995 952.84 116.995 952.84L111.728 941.106C111.728 941.106 106.49 926.91 105.943 917.395C105.467 909.094 108.092 896.212 108.092 896.212C108.092 896.212 94.0109 901.285 87.7368 907.992C80.8717 915.332 77.0274 931.392 77.0274 931.392M182.326 889.947C182.326 889.947 161.442 894.111 148.061 896.78M182.326 889.947C182.326 889.947 169.803 892.444 161.779 894.044C156.422 895.113 153.418 895.712 148.061 896.78M148.061 896.78C144.153 892.856 140.585 891.658 138.055 886.732C134.077 878.988 138.578 864.445 138.578 864.445C138.578 864.445 140.185 859.297 142.921 857.934C145.569 856.615 150.49 858.236 150.49 858.236C150.49 858.236 157.062 870.922 164.323 875.734C164.323 875.734 168.748 878.81 172.017 879.594C175.22 880.363 180.451 879.686 180.451 879.686L163.218 857.322C163.218 857.322 162.073 852.168 161.34 848.866M137.775 823.943C144.467 831.021 154.913 842.069 154.913 842.069C154.913 842.069 158.83 846.211 161.34 848.866M137.775 823.943C136.007 817.095 138.517 811.127 133.249 806.408C127.839 801.562 121.861 802.417 114.795 804.097C108.8 805.522 101.223 812.146 101.223 812.146C101.223 812.146 98.5869 821.866 98.051 828.668C96.8306 844.16 107.008 853.099 104.872 868.491C104.267 872.857 102.351 879.492 102.351 879.492C102.351 879.492 98.6889 887.204 96.3424 892.146M137.775 823.943C146.977 833.676 152.137 839.133 161.34 848.866M96.3424 892.146C88.0813 900.872 90.2205 898.242 83.3592 908.107M96.3424 892.146C93.9516 894.527 90.2205 898.242 90.2205 898.242C90.2205 898.242 86.0387 904.254 83.3592 908.107M83.3592 908.107C80.8865 917.2 77.0274 931.392 77.0274 931.392M83.3592 908.107C81.7158 914.006 79.1509 923.213 79.1509 923.213L77.0274 931.392" stroke="#E5E5E5" stroke-width="3"/>
</g>
</g>
<g id="girlBodyG">
<path id="dressItem3" d="M407.123 1195.12C388.362 1232.69 378.358 1298.74 378.358 1298.74C378.358 1298.74 393.073 1290.32 400.507 1282.63C411.736 1271.01 411.551 1259.85 420.507 1246.4C432.697 1228.09 456.809 1203.34 456.809 1203.34L471.721 1191.18L473.741 1198.92C473.741 1198.92 473.783 1205.92 476.393 1209.08C479.227 1212.51 482.425 1213.31 486.869 1213.58L497.029 1210.93C497.029 1210.93 517.846 1182.47 529.523 1163.17C540.036 1145.8 554.276 1117.44 554.276 1117.44L585.612 1063.27L612.614 1000.42L633.917 949.382L664.96 913.892L674.153 911.493C674.153 911.493 679.236 921.095 684.482 925.333C689.442 929.339 692.95 931.234 699.229 932.336C709.037 934.058 714.805 929.948 723.902 925.896C737.956 919.637 743.505 911.882 754.695 901.324C774.664 882.483 782.791 868.817 798.147 846.059C826.093 804.643 834.01 776.789 855.055 731.474C884.978 667.044 925.483 563.753 925.483 563.753L849.081 728.383C849.081 728.383 830.002 769.001 813.602 792.418C793.936 820.498 754.606 857.423 754.606 857.423C754.606 857.423 737.109 881.737 723.161 877.515C715.333 875.147 715.119 866.734 707.614 863.487C698.182 859.407 691.215 860.94 681.299 863.637C668.001 867.254 663.034 875.151 652.525 884.066C640.497 894.269 624.447 913.097 624.447 913.097L611.008 938.825L593.659 985.209L565.144 1054.14C565.144 1054.14 547.7 1114.73 515.572 1127.54C508.499 1130.36 504.237 1133.58 496.704 1132.47C483.003 1130.44 475.792 1103.82 475.792 1103.82C475.792 1103.82 464.453 1096.86 456.439 1096.98C435.036 1097.31 446.301 1128.99 436.714 1148.12C427 1167.51 416.811 1175.72 407.123 1195.12Z" fill="#594949" fill-opacity="0.51"/>
<path id="dressItem2" d="M452.759 1292.76C452.759 1292.76 428.849 1299.57 423.733 1312.22C421.3 1318.24 422.186 1322.25 421.842 1328.73C421.197 1340.86 421.904 1347.76 423.738 1359.76C425.834 1373.46 423.218 1384 432.703 1394.11C439.615 1401.48 445.812 1404.62 455.864 1405.63C465.772 1406.63 480.538 1399.19 480.538 1399.19C480.538 1399.19 499.89 1382.89 507.27 1368.96C517.8 1349.1 515.656 1312 515.656 1312L591.612 1292.18L618.386 1254.18C618.386 1254.18 632.711 1218.01 641.055 1194.52C648.234 1174.32 658.466 1142.44 658.466 1142.44C658.466 1142.44 675.067 1111.19 679.747 1089.34C686.416 1058.22 660.228 1034.88 677.087 1007.88C681.391 1000.98 684.356 997.283 690.506 991.971C707.796 977.039 728.401 990.309 747.11 977.198C761.535 967.089 766.049 957.053 775.735 942.34C793.923 914.711 807.426 863.791 807.426 863.791C807.426 863.791 784.755 896.581 769.043 916.699C758.2 930.581 740.418 951.557 740.418 951.557C740.418 951.557 712.099 969.287 694.457 963.553C682.347 959.616 669.381 942.71 669.381 942.71C669.381 942.71 660.357 960.956 656.721 973.401C649.069 999.6 659.056 1016.63 652.712 1043.18C646.82 1067.83 637.152 1079.55 627.497 1102.98C617.501 1127.25 614.008 1141.78 602.431 1165.33C588.968 1192.72 584.344 1211.41 562.009 1232.21C547.999 1245.25 536.938 1248.45 520.93 1258.95C505.232 1269.24 498.262 1278.5 480.819 1285.44C470.296 1289.62 452.759 1292.76 452.759 1292.76Z" fill="#594949" fill-opacity="0.51"/>
<g id="hair">
<path id="hairshape" d="M438.5 387.521C446.925 390.569 429 387.521 456.944 405.983C508.97 440.355 474.935 440.809 525.072 472.057C534.281 477.796 546.77 464.442 554.5 472.057C561.991 479.437 576.792 461.333 586.595 465.137C590.665 466.716 593.256 468.324 597.533 467.449C602.331 466.468 607.398 459.707 607.398 459.707C607.398 459.707 615.301 462.465 620.419 464.06C628.605 466.612 633.033 469.244 641.581 469.906C656.182 471.035 677.866 460.436 677.866 460.436C677.866 460.436 691.114 464.505 698.692 468.952C703.716 471.901 705.429 475.396 710.788 477.681C716.496 480.114 720.267 479.903 726.46 480.308C735.557 480.903 740.733 479.879 749.724 478.37C759.353 476.755 773.914 472.057 773.914 472.057C773.914 472.057 788.946 456.743 800.731 450.072C806.598 446.751 809.688 443.179 816.423 442.876C823.294 442.568 826.106 448.586 832.978 448.89C842.414 449.308 846.686 443.468 855.442 439.927C866.22 435.568 872.456 433.555 882.976 428.607C894.247 423.306 900.797 420.554 911.077 413.521C925.354 403.755 943.51 383.353 943.51 383.353C943.51 383.353 926.655 387.291 915.66 387.521C899.148 387.868 889.633 385.603 873.989 380.311C857.365 374.688 848.555 369.446 834.356 359.133C819.752 348.526 813.522 340.126 801.159 326.974C787.221 312.148 777.916 304.672 767.519 287.18C754.12 264.637 755.465 248.037 746.245 223.488C735.837 195.775 731.722 179.182 716.662 153.696C710.567 143.383 707.775 136.976 699.662 128.162C692.837 120.746 688.481 116.826 679.845 111.63C666.1 103.361 656.573 100.443 640.55 99.6658C626.071 98.9633 603.992 106.107 603.992 106.107C603.992 106.107 596.353 96.5731 589.455 95.9484C582.094 95.2817 578.792 100.508 572.565 104.491C558.77 113.313 556.707 125.184 543.161 134.385C536.502 138.909 532.495 141.157 525.072 144.274C514.81 148.583 507.766 147.182 497.496 151.471C487.571 155.615 482.196 158.763 473.749 165.42C466.463 171.162 462.08 174.483 456.944 182.208C452.164 189.395 450.781 194.282 448.301 202.55C445.765 211.001 410.367 232.202 409.5 240.983C408.14 254.746 414.087 278.912 403 287.18C348.243 328.008 415 379.021 438.5 387.521Z" fill="black"/>
<path id="highlight hair" d="M633.162 239.082C627.781 225.115 618.274 220.193 614.142 205.807C611.756 197.496 611.006 183.889 611.006 183.889L614.222 166.513C614.222 166.513 613.719 181.313 616.286 190.262C618.536 198.102 625.333 209.087 625.333 209.087C625.333 209.087 644.277 232.821 648.687 251.05C650.493 258.512 651.193 270.549 651.193 270.549C651.193 270.549 651.779 281.708 650.774 288.744C649.296 299.093 643.501 303.779 642.426 314.177C641.528 322.863 641.939 328.016 644.111 336.474C646.331 345.118 653.664 357.234 653.664 357.234C653.664 357.234 638.939 348.317 634.436 338.999C631.972 333.901 631.422 330.595 630.774 324.969C629.612 314.882 632.792 309.249 634.389 299.222C636.422 286.454 641.051 279.569 640.359 266.659C639.763 255.545 637.163 249.468 633.162 239.082Z" fill="white"/>
</g>
<path id="dressItem1" d="M474.978 977.945C446.158 1028.68 411.005 1112.98 411.005 1112.98C411.005 1112.98 424.282 1056.72 436.868 1022C457.564 964.886 478.129 936.618 506.499 882.904C515.081 866.655 519.271 857.184 528.749 841.441C536.737 828.174 538.466 817.972 550.601 808.351C556.465 803.701 559.782 799.479 567.239 798.841C577.282 797.981 589.685 811.586 589.685 811.586C589.685 811.586 597.621 797.997 603.04 789.497C617.663 766.56 644.178 733.286 644.178 733.286C644.178 733.286 668.915 694.969 693.143 695.186C698.22 695.232 706.017 696.994 706.017 696.994C706.017 696.994 721.003 704.977 731.45 705.342C751.768 706.051 759.354 690.115 776.167 678.685C796.629 664.774 807.993 656.494 825.848 639.365C842.379 623.505 849.426 612.487 864.442 595.186C891.39 564.139 932.987 515.287 932.987 515.287C932.987 515.287 897.707 581.595 871.387 621.795C857.465 643.058 848.699 654.329 834.161 675.176L796.935 728.557C796.935 728.557 757.504 796.858 718.397 791.945C700.007 789.634 676.093 770.431 676.093 770.431L624.142 824.813C624.142 824.813 588.839 904.748 570.993 880.541C564.272 871.425 563.669 852.481 563.669 852.481L548.652 866.219C548.652 866.219 500.792 932.5 474.978 977.945Z" fill="#594949" fill-opacity="0.51" stroke="black"/>
<path id="filling" d="M426.863 546.098C419.675 559.786 417.519 569.178 417.802 584.636C418.259 609.607 438.288 618.589 444.355 642.816C450.094 665.738 454.606 680.276 448.737 703.165C434.092 760.278 365.717 781.475 309.899 762.483C265.332 747.318 234.09 668.755 234.09 668.755L267.675 597.463L309.527 528.148C309.527 528.148 314.517 510.229 314.5 498.483C314.484 487.283 315.21 480.036 309.899 470.175C307.285 465.321 304.654 463.356 301.294 458.985C295.482 451.423 289.717 448.564 286.42 439.614C282.109 427.907 283.627 419.42 287.91 407.703C290.707 400.051 293.507 396.111 298.762 389.885C307.253 379.826 326.211 370.319 326.211 370.319C326.211 370.319 374.841 352.623 403.722 336.654C426.255 324.194 458.893 300.551 458.893 300.551L507 258.483C507 258.483 539.991 240.123 553.5 252.483C564.191 262.264 560.167 288.983 560.167 288.983L507 342.483C507 342.483 540.793 337.593 553.5 342.483C566.016 347.299 575.488 363.983 569.5 375.983C560.167 394.687 564.306 383.97 553.5 399.483C544.414 412.527 541.976 412.428 530.132 423.031C517.77 434.097 508.276 437.859 498.162 451.011C488.207 463.956 488.407 474.743 479.508 488.435C473.059 498.357 460.957 512.396 460.957 512.396C460.957 512.396 435.569 529.524 426.863 546.098Z" fill="white" stroke="black" stroke-opacity="0.54"/>
<g id="face">
<path id="facemain" d="M572.232 130.932L583 124.483C583 124.483 575.87 142.859 574.296 154.68C573.02 164.261 575.366 169.761 577.096 179.27C579.054 190.028 579.345 196.549 584.167 206.363C589.143 216.487 595.079 220.181 601.987 229.1C610.025 239.478 622.394 255.812 622.394 255.812C622.394 255.812 622.767 256.685 620.5 259.483C609.998 272.446 591.937 280.833 580.495 285.35C569.053 289.867 562.271 292.237 550.016 293.305L549.975 293.308C536.519 294.481 527.475 295.27 514.5 291.483C505.688 288.911 499.684 287.733 493.977 280.543C486.906 271.634 489.306 260.794 490.5 249.483C492.217 233.218 496.294 225.811 502 210.483C506.142 199.356 510.931 193.59 517.231 183.526C522.06 175.811 526.028 172.35 532.206 165.666C546.253 150.467 572.232 130.932 572.232 130.932Z" fill="white" stroke="black"/>
<path id="mouth" d="M513.39 236.988C513.615 238.85 514.626 238.028 514.513 241.657C514.412 244.875 515.383 244.077 515.722 247.279C516.18 251.622 517.71 249.899 520.554 253.211C523.079 256.151 522.907 258.34 526.521 259.741C530.038 261.104 529.282 260.627 532.871 261.787C536.22 262.871 540.587 265.456 540.587 265.456L552.231 273.003L549.75 270.194C549.75 270.194 546.899 267.174 545.286 265.065C543.852 263.192 539.362 259.8 538.234 257.728C536.188 253.968 538.366 252.112 535.469 248.962C532.916 246.186 527.752 245.293 527.752 245.293C527.752 245.293 526.464 241.158 525.23 239.559C523.635 237.493 522.787 238.667 520.412 237.586C518.106 236.537 518.689 236.619 516.771 234.963C515.027 233.457 514.107 228.575 514.107 228.575C514.107 228.575 512.996 233.714 513.39 236.988Z" fill="black" stroke="black"/>
<path id="nosegirl" d="M543.174 241.349C546.095 243.264 551.925 243.199 551.925 243.199C551.925 243.199 550.692 240.835 549.463 239.707C548.243 238.587 546.947 238.76 545.803 237.562C543.78 235.444 543.909 230.305 543.909 230.305C543.909 230.305 542.274 227.354 540.606 227.55C539.305 227.703 538.806 228.667 538.082 229.759C536.031 232.851 540.481 238.951 540.481 238.951C540.481 238.951 541.996 240.577 543.174 241.349Z" fill="black" stroke="black"/>
<path id="lefteye" d="M589.387 230.321C586.728 227.062 582.991 221.655 582.991 221.655C582.991 221.655 583.033 226.331 583.434 229.291C584.063 233.935 584.029 236.898 586.464 240.902C588.744 244.651 590.688 246.733 594.669 248.579C598.321 250.272 604.871 250.05 604.871 250.05L611.16 248.409L603.356 244.245C600.819 242.486 599.6 241.217 597.36 239.092C594.002 235.906 592.313 233.908 589.387 230.321Z" fill="black" stroke="black"/>
<path id="righteye" d="M539.128 178.328C540.059 174.576 544.133 169.787 544.133 169.787L547.479 176.665C547.892 180.626 549.668 182.564 551.939 185.836C554.232 189.139 556.029 190.628 559.05 193.282C562.074 195.938 567.359 199.381 567.359 199.381C567.359 199.381 563.541 202.502 561.323 201.99C557.825 201.182 552.214 200.75 552.214 200.75C552.214 200.75 546.216 198.249 543.547 195.261C541.653 193.14 539.844 188.993 539.844 188.993C539.844 188.993 538.122 182.379 539.128 178.328Z" fill="black" stroke="black"/>
</g>
<path id="dress" d="M541.915 636.473C511.627 617.788 469.19 581.559 469.19 581.559C469.19 581.559 455.166 574.73 445.462 573.8C434.901 572.787 418.579 577.715 418.579 577.715C418.579 577.715 421.082 557.971 425.896 546.351C436.956 519.652 462.024 517.799 477.741 493.547C488.755 476.553 499.57 446.51 499.57 446.51C499.57 446.51 466.031 395.363 432.545 379.773C410.379 369.453 371.289 366.822 371.289 366.822C371.289 366.822 338.987 364.572 321.268 373.16C307.201 379.977 298.38 385.482 290.854 399.183C282.789 413.867 285.958 441.801 285.958 441.801C285.958 441.801 303.311 456.895 309.289 469.817C319.132 491.096 308.938 529.852 308.938 529.852L270.178 593.193L235.31 669.471C235.31 669.471 223.942 719.63 220.763 752.33C215.512 806.358 210.276 839.014 224.986 891.267C238.564 939.497 286.422 1003.9 286.422 1003.9C286.422 1003.9 377.186 1102.34 379.439 1180.12C380.303 1209.96 370.169 1225.98 368.698 1255.79C367.251 1285.13 371.778 1330.95 371.778 1330.95C371.778 1330.95 385.821 1323.53 393.57 1327.33C399.791 1330.37 404.026 1341.65 404.026 1341.65C404.026 1341.65 408.632 1363.45 411.309 1377.47C413.255 1387.67 412.883 1393.74 416.065 1403.62C420.828 1418.4 423.323 1428.66 435.464 1438.35C442.831 1444.23 448.036 1446.82 457.279 1448.67C465.359 1450.29 470.305 1449.99 478.377 1448.33C497.239 1444.46 501.015 1428.24 517.604 1418.46C527.403 1412.68 534.149 1411.69 543.665 1405.46C556.379 1397.13 572.501 1379.33 572.501 1379.33C572.501 1379.33 590.385 1357.69 600.747 1343.02C611.028 1328.46 615.974 1319.73 625.333 1304.56C633.09 1291.99 644.766 1272.1 644.766 1272.1C644.766 1272.1 655.828 1275.18 662.982 1274.58C675.54 1273.53 691.694 1259.85 691.694 1259.85C691.694 1259.85 722.075 1222.12 737.964 1195.59C756.409 1164.79 777.248 1112.47 777.248 1112.47L822.082 1003.11L851.608 938.04L885.614 872.322L929.548 793.162L981.391 716.588C981.391 716.588 976.328 713.271 972.85 711.582C959.149 704.931 947.77 713.13 934.229 706.16C925.268 701.547 918.935 698.635 914.412 689.628L911.002 676.566L912.767 659.569C912.767 659.569 928.288 628.878 937.226 608.746C957.159 563.845 965.7 537.46 980.271 490.544C993.237 448.795 994.624 423.646 1008.87 382.315C1014.8 365.104 1021.47 356.505 1025.39 338.728C1030.15 317.196 1027.72 282.312 1027.72 282.312C1027.72 282.312 1010.68 331.222 996.642 361.218C984.809 386.498 977.115 400.2 962.972 424.264C949.25 447.615 942.081 461.209 925.494 482.62C909.839 502.83 898.566 512.059 881.242 530.859C851.436 563.204 837.271 583.94 804.599 613.389C790.65 625.962 783.541 634.145 767.686 644.209C745.092 658.552 730.037 663.265 704.037 669.606C689.747 673.091 681.562 675.025 666.868 675.69C650.086 676.449 640.497 675.156 624.019 671.887C606.803 668.472 581.19 658.261 581.19 658.261C581.19 658.261 556.843 645.682 541.915 636.473Z" fill="url(#paint0_linear)" fill-opacity="0.2" stroke="black" stroke-width="2"/>
</g>
<g id="leftArmG">
<path id="leftLowArmG" d="M610.276 627.582C609.858 613.864 609.539 597.558 600.736 588.808C591.624 579.75 582.425 573.452 570.057 576.929C563.995 578.634 561.533 586.87 561.533 586.87C561.533 586.87 557.024 603.991 555.158 615.161C551.972 634.225 551.711 664.535 551.711 664.535L573.894 789.027C573.894 789.027 573.66 801.169 573.573 808.95C573.492 816.145 577.462 821.351 581.097 827.56C584.733 833.769 592.145 830.503 594.171 826.406C598.472 817.71 599.632 802.171 599.632 802.171C598.764 772.006 600.195 755.057 602.01 724.934C604.529 683.116 610.695 641.301 610.276 627.582Z" fill="white" stroke="black" stroke-opacity="0.38"/>
<g id="leftHandG">
<path d="M592.47 845L596.975 825.011C596.975 825.011 600.447 812.57 596.56 806.45C594.188 802.716 592.076 800.341 587.778 799.293C583.321 798.205 579.832 798.936 576.321 801.889C571.692 805.785 575.274 811.431 572.915 817.003C568.962 826.341 563.919 830.322 556.127 836.81C548.996 842.748 535.694 848.941 535.694 848.941L516.916 870.024C516.916 870.024 521.223 869.897 523.765 868.969C528.107 867.383 529.224 864.246 532.882 861.42C538.681 856.939 548.325 850.758 548.325 850.758C548.325 850.758 555.216 853.102 558.183 856.399C564.366 863.272 558.704 880.065 558.704 880.065L550.761 889.333C539.417 890.289 514.316 880.125 514.316 880.125L534.982 894.329C534.982 894.329 542.938 899.547 548.548 899.157C553.027 898.845 554.995 896.41 559.162 894.738C561.292 893.884 564.631 892.587 564.631 892.587C564.631 892.587 567.952 906.168 565.449 917.468C563.791 924.954 556.852 940.762 556.852 940.762C556.852 940.762 565.743 933.516 569.323 927.312C573.87 919.432 574.791 904.668 574.791 904.668L578.727 891.833L579.881 913.397L575.011 947.503L581.099 936.173C581.099 936.173 587.333 922.386 588.554 912.933C589.62 904.687 587.917 891.651 587.917 891.651L607.383 904.849L616.402 928.95C616.402 928.95 613.562 914.52 611.741 905.274C607.127 898.696 604.54 895.008 599.926 888.431C597.379 883.391 596.239 880.368 594.822 874.902C593.762 870.808 592.955 864.235 592.955 864.235L592.47 845Z" fill="white"/>
<path d="M514.316 880.125L534.982 894.329C534.982 894.329 542.938 899.547 548.548 899.157C553.027 898.845 554.995 896.41 559.162 894.738C561.292 893.884 564.631 892.587 564.631 892.587C564.631 892.587 567.952 906.168 565.449 917.468C563.791 924.954 556.852 940.762 556.852 940.762C556.852 940.762 565.743 933.516 569.323 927.312C573.87 919.432 574.791 904.668 574.791 904.668L578.727 891.833L579.881 913.397L575.011 947.503L581.099 936.173C581.099 936.173 587.333 922.386 588.554 912.933C589.62 904.687 587.917 891.651 587.917 891.651L607.383 904.849L616.402 928.95M514.316 880.125C514.316 880.125 539.417 890.289 550.761 889.333M514.316 880.125L539.884 888.214L550.761 889.333M550.761 889.333L558.704 880.065C558.704 880.065 564.366 863.272 558.183 856.399C555.216 853.102 548.325 850.758 548.325 850.758C548.325 850.758 538.681 856.939 532.882 861.42C529.224 864.246 528.107 867.383 523.765 868.969C521.223 869.897 516.916 870.024 516.916 870.024L535.694 848.941C535.694 848.941 548.996 842.748 556.127 836.81C563.919 830.322 568.962 826.341 572.915 817.003C575.274 811.431 571.692 805.785 576.321 801.889C579.832 798.936 583.321 798.205 587.778 799.293C592.076 800.341 594.188 802.716 596.56 806.45C600.447 812.57 596.975 825.011 596.975 825.011L592.47 845L592.955 864.235M592.955 864.235C592.955 864.235 593.762 870.808 594.822 874.902C596.239 880.368 597.379 883.391 599.926 888.431M592.955 864.235L594.955 875.409C594.955 875.409 597.936 883.334 599.926 888.431M599.926 888.431C604.54 895.008 607.127 898.696 611.741 905.274M599.926 888.431C602.141 890.975 604.864 895.471 604.864 895.471C604.864 895.471 609.343 901.241 611.741 905.274M611.741 905.274C613.562 914.52 616.402 928.95 616.402 928.95M611.741 905.274C612.961 911.275 613.415 913.775 613.415 913.775L616.402 928.95" stroke="black" stroke-opacity="0.38"/>
</g>
<g id="leftUpArmG">
<path d="M574.135 387.837C574.135 387.837 573.948 371.821 568.832 363.586C564.824 357.134 561.512 353.482 554.603 350.327C544.479 345.704 536.65 348.177 526.144 351.85C510.209 357.42 495.213 382.045 495.213 382.045C495.213 382.045 495.109 401.329 496.896 413.5C499.971 434.445 513.181 465.204 513.181 465.204C513.181 465.204 513.803 476.782 514.695 484.15C516.236 496.87 517.613 503.986 520.925 516.364C525.472 528.244 528.021 534.905 532.567 546.785C543.464 567.712 560.47 600.371 560.47 600.371C560.47 600.371 565.523 609.256 568.76 614.949C575.331 616.829 579.903 616.584 586.235 614.014C594.171 610.793 599.604 606.553 601.411 598.181C602.317 593.982 602.172 591.275 600.823 587.196C591.616 561.291 577.246 520.861 577.246 520.861C577.246 520.861 574.642 500.706 572.973 487.792C572.311 475.411 571.277 456.088 571.277 456.088L574.135 387.837Z" fill="white"/>
<path d="M513.181 465.204C513.181 465.204 499.971 434.445 496.896 413.5C495.109 401.329 495.213 382.045 495.213 382.045C495.213 382.045 510.209 357.42 526.144 351.85C536.65 348.177 544.479 345.704 554.603 350.327C561.512 353.482 564.824 357.134 568.832 363.586C573.948 371.821 574.135 387.837 574.135 387.837M513.181 465.204C513.181 465.204 517.901 496.385 520.925 516.364M513.181 465.204C513.181 465.204 513.803 476.782 514.695 484.15C516.236 496.87 517.613 503.986 520.925 516.364M520.925 516.364C525.472 528.244 528.021 534.905 532.567 546.785M532.567 546.785C546.701 573.405 554.626 588.329 568.76 614.949M532.567 546.785C543.464 567.712 560.47 600.371 560.47 600.371C560.47 600.371 565.523 609.256 568.76 614.949M568.76 614.949C575.331 616.829 579.903 616.584 586.235 614.014C594.171 610.793 599.604 606.553 601.411 598.181C602.317 593.982 602.172 591.275 600.823 587.196M574.135 387.837L572.91 430.464L571.277 456.088M574.135 387.837L571.277 456.088M600.823 587.196C591.8 561.085 583.325 547.386 577.719 520.335C575.112 507.759 574.826 500.501 572.973 487.792M600.823 587.196C591.616 561.291 577.246 520.861 577.246 520.861C577.246 520.861 574.642 500.706 572.973 487.792M571.277 456.088C571.277 456.088 572.311 475.411 572.973 487.792" stroke="black" stroke-opacity="0.38"/>
</g>
</g>
</g>
</g>
<defs>
<linearGradient id="paint0_linear" x1="563.355" y1="316.694" x2="834.449" y2="1355.4" gradientUnits="userSpaceOnUse">
<stop stop-color="#FA1A1A"/>
<stop offset="1" stop-color="white" stop-opacity="0"/>
</linearGradient>
</defs>
</svg>
