<svg width="979" height="1518" viewBox="0 0 979 1518" fill="none" xmlns="http://www.w3.org/2000/svg">
<g id="Frame 1">
<path id="leg2" d="M383 889.5V804L393.5 765.5L414 737L444 724.5L475.5 734L503.5 772.5L521 804V873L509.5 957L491 1047L476.5 1131L457 1188.5H430.5L401 1177L383 1162H358.5L350 1177L340.5 1206.5L322 1244L317.5 1277L309 1319.5L317.5 1341L309 1360.5L317.5 1383.5L329 1408L340.5 1432.5L350 1451L358.5 1469L340.5 1460.5H329L322 1469L317.5 1483.5L322 1498.5L317.5 1518L304 1506.5L283 1483.5L265 1469L245 1451V1432.5V1408L232 1383.5L245 1352.5L256.5 1319.5L265 1291.5V1244L274.5 1177L265 1131V1086.5L283 1063.5L304 1047H329L350 1075H383L417.5 1063.5V1047V1034L401 966.5L383 917.5V889.5Z" fill="black"/>
<path id="leg1" d="M473.269 922.157L426.26 861.805L414 818L426.26 790.5L453 757.269L483 749.5L512 745.5L536.871 757.269L626.533 918.759L693.504 1053.56L711.158 1089.24L715.518 1114.37L705.262 1122.36L686.237 1132.11L664.928 1137.3L650.412 1136.56L638.18 1140.38L623.19 1152.06L630.223 1175.73L640.296 1217.96L648.076 1244.22L682.368 1303.7L701.368 1319.96L706.25 1340.87L738.101 1359.8L762.665 1368.55L780.303 1381.43L799.996 1386.37L810.92 1393.07L793.822 1398.79L785.932 1404.93L783.403 1425.28L797.4 1435.93L808.291 1457.23L759.13 1454.33L729.525 1448.87L703.778 1441.04L686.264 1418.55L673.41 1410.19L659.944 1406.73L644.649 1357.8L626.634 1307.82L571.449 1221.52L528.621 1181.99L503.733 1150.04L501.961 1124.17L506.417 1099.78L532.451 1079.5L561.707 1087.77L568.807 1082.24L586.952 1068.11L609.424 1033.49L584.894 1010.13L528.816 962.55L491.397 945.43L473.269 922.157Z" fill="black"/>
<path id="trankdude" d="M547.5 746L528.5 829L494.5 858C494.5 858 465.036 878.004 444.5 875.5C429.157 873.629 409 858 409 858C409 858 393.379 847.451 385.5 838.5C373.037 824.341 370.029 813.197 363.5 795.5C358.941 783.144 354.5 763 354.5 763C354.5 763 351.377 739.207 354.5 724.5C357.803 708.945 363.954 701.497 371.5 687.5C376.569 678.097 380.227 673.291 385.5 664C391.838 652.832 398.88 647.665 401 635C402.096 628.452 401 624.639 401 618C401 610.58 403.231 606.077 401 599C398.166 590.011 390.591 588.432 385.5 580.5C377.156 567.498 377.15 557.879 371.5 543.5C365.095 527.199 365.113 515.932 354.5 502C347.551 492.878 341.045 490.172 333 482C318.512 467.284 310.719 458.503 299 441.5C287.688 425.088 274 397 274 397L263.5 375L255 358.5V346L269.5 325L285.5 315.5L297 314.5L309 315.5L333 316.5L345 309V287L342 247.5L350 226.5L371.5 217L393 223L415 247.5L425.5 273L433.5 309L447 316.5L486 326L522.5 336L534 346L539 359.5L543 378L547.5 397V417.5V432.5V469.5L555.5 502V543.5V599L547.5 645.5V746Z" fill="black"/>
<g id="rightArm">
<g id="rightLowerComb">
<g id="rightThumb" filter="url(#filter0_d)">
<path d="M673.403 742.022L651.83 712.542L672.779 710.704L678.746 713.283L680.507 716.768L685.842 732.148L687.37 747.516L684.382 758.208L678.181 767.511L673.403 742.022Z" fill="white"/>
<path d="M673.403 742.022L651.83 712.542L672.779 710.704L678.746 713.283L680.507 716.768L685.842 732.148L687.37 747.516L684.382 758.208L678.181 767.511L673.403 742.022Z" stroke="black" stroke-width="5"/>
</g>
<path id="rightHand" d="M656.031 726.176L624.94 718.48L624.498 715.79L645.208 710.561L660.002 700.307L673.53 689.105L661.976 663.742L669.501 665.738L689.589 679.799L717.144 700.244L737.069 705.292L763.447 714.385L777.367 724.813L758.997 729.029L766.272 732.504L772.538 741.544L758.37 740.414L730.727 730.373L721.714 730.536L738.365 761.58L747.264 785.83L735.245 780.777L721.797 765.764L705.053 737.217L696.508 724.889L680.061 720.471L656.031 726.176Z" fill="white" stroke="black" stroke-width="5"/>
<path id="rightLowArm" d="M648.443 649.246L605.547 604.111L573.479 569.356L556.83 551.32L536.147 536.481L502.916 547.015L500.23 573.807L523.885 622.107L543.244 641.218L566.044 665.843L596.495 687.69L626.926 718.66L659.482 716.344L670.836 711.436L675.133 700.595L676.557 687.692L667.14 670.493L648.443 649.246Z" fill="black" stroke="black"/>
</g>
<path id="rightUpArm" d="M574.819 509.758L570.042 474.76L575.569 409.241L560.636 374.621L538.118 342.082L510.082 335.752L491.931 355.64L473.832 389.414L473.638 421.625L477.634 446.039L481.915 512.773L487.588 547.385L501.389 579.382L522.402 583.009L557.402 583.159L584.107 579.264L578.979 545.914L574.819 509.758Z" fill="black"/>
</g>
<g id="leftArm">
<path id="leftUpArm" d="M209.945 478.376L219.518 444.375L223.108 378.722L242.687 346.5L269.49 317.39L298.132 314.999L313.357 337.206L326.61 373.16L322.346 405.088L315.01 428.714L301.538 494.214L291.132 527.708L273.036 557.489L256.599 576.629L243.151 590.21L207.495 583.893L192.697 552.728L200.823 513.609L209.945 478.376Z" fill="black"/>
<g id="leftThumb" filter="url(#filter1_d)">
<path d="M295.998 795.927L265.775 775.407L264.677 796.408L267.465 802.28L271.01 803.918L286.568 808.707L301.98 809.692L312.56 806.328L321.639 799.803L295.998 795.927Z" fill="white"/>
<path d="M295.998 795.927L265.775 775.407L264.677 796.408L267.465 802.28L271.01 803.918L286.568 808.707L301.98 809.692L312.56 806.328L321.639 799.803L295.998 795.927Z" stroke="black" stroke-width="5"/>
</g>
<path id="leftHand" d="M263.378 805.328L282.361 784.691L294.029 749.815L274.425 767.979L258.12 777.935L241.454 783.635L222.002 761.322L228.463 828.549L218.51 867.038L220.031 891.224L225.802 882.395L232.623 876.943L232.373 889.238L236.233 897.368L242.309 884.52L245.552 868.036L247.869 853.098L252.691 846.934L260.051 858.937L269.793 874.791L287.912 896.63L288.636 883.002L283.603 866.573L264.977 836.672L259.04 820.672L263.378 805.328Z" fill="white" stroke="black" stroke-width="5"/>
<path id="leftLowArm" d="M276.408 549.51L255.218 524.701L231.598 520.419L207.208 532L191.984 554.727L195.93 602.669L209.763 670.27L219.789 760.158L241.668 784.087L252.225 781.841L272.121 771.287L280.082 764.739L288.066 757.074L294.48 749.6L295.825 738.445L292.218 695.877L282.781 676.004L277.514 638.099L278.771 609.274L280.096 577.095L276.408 549.51Z" fill="black"/>
</g>
<g id="headMain">
<path id="cylinder" d="M281 193.5L303.5 187L428 154L444.5 150.5H448.5L456 147L460.5 142.5L466.5 138L468 136.5L464 132.5L452 128.5L437.5 123.5L424 115L419.5 106L413.5 81.5L405 40L398 5L396 0H378.5L351 5L324.5 10L303.5 15.5L283 23L266.5 28.5L264.5 34L268 40L277 71L287 103L291.5 123.5V142.5V156.5L283 169L275 181L266.5 188L268 193.5L271 196L281 193.5Z" fill="black"/>
<path id="Head" d="M435.5 144L420.5 124.5L412.5 104L401.5 95.5L385.5 86.5L361 76.5H334L311 84.5L297 104L295 130.5V155.5V174L297 189L303 202L307 214L311 221.5L317 229.5L324 237L329 244.5L334 250L343.5 261L361 264H385.5H412.5H424L429.5 261H438H448.5L457.5 258.5L463.5 257L473.5 258.5L485 261L494.5 264L500.5 266.5H505V264L500.5 261L494.5 254.5L491.5 250L487 244.5L481.5 239L473.5 229.5L468.5 221.5L464.5 214V207V199.5L468.5 196.5L476 193L485 189L489.5 185V181L485 177H481.5H476H471L464.5 174L457.5 170L451.5 164.5L445.5 158L442.5 152L435.5 144Z" fill="black" stroke="black"/>
<path id="glases" d="M416 173.5V184L406 191L404 195V202V225L405.5 241.5V263V285L404 298L402 309L397 322.5L391.5 332.5L382 346.5L373.5 357.5L360.5 368.5L354.5 375.5L360.5 372L373.5 362L384 351.5L394 336.5L399.5 325L404 314L407 303.5L410 286V266.5V238V214V197.5L418 192.5H421.5L425 195L429.5 199.5L440 197.5L445.5 188.5L443 175.5L435.5 163.5L429.5 160.5H421.5L416 165.5V173.5Z" fill="white"/>
</g>
</g>
<defs>
<filter id="filter0_d" x="624.711" y="699.048" width="82.4625" height="84.2176" filterUnits="userSpaceOnUse" color-interpolation-filters="sRGB">
<feFlood flood-opacity="0" result="BackgroundImageFix"/>
<feColorMatrix in="SourceAlpha" type="matrix" values="0 0 0 0 0 0 0 0 0 0 0 0 0 0 0 0 0 0 127 0"/>
<feOffset dy="4"/>
<feGaussianBlur stdDeviation="2"/>
<feColorMatrix type="matrix" values="0 0 0 0 0 0 0 0 0 0 0 0 0 0 0 0 0 0 0.25 0"/>
<feBlend mode="normal" in2="BackgroundImageFix" result="effect1_dropShadow"/>
<feBlend mode="normal" in="SourceGraphic" in2="effect1_dropShadow" result="shape"/>
</filter>
<filter id="filter1_d" x="248.299" y="750.868" width="85.145" height="83.5471" filterUnits="userSpaceOnUse" color-interpolation-filters="sRGB">
<feFlood flood-opacity="0" result="BackgroundImageFix"/>
<feColorMatrix in="SourceAlpha" type="matrix" values="0 0 0 0 0 0 0 0 0 0 0 0 0 0 0 0 0 0 127 0"/>
<feOffset dy="4"/>
<feGaussianBlur stdDeviation="2"/>
<feColorMatrix type="matrix" values="0 0 0 0 0 0 0 0 0 0 0 0 0 0 0 0 0 0 0.25 0"/>
<feBlend mode="normal" in2="BackgroundImageFix" result="effect1_dropShadow"/>
<feBlend mode="normal" in="SourceGraphic" in2="effect1_dropShadow" result="shape"/>
</filter>
</defs>
</svg>
