<svg width="242" height="376" viewBox="0 0 242 376" fill="none" xmlns="http://www.w3.org/2000/svg">
<g id="headMain">
<path id="cylinder" d="M17 193.5L39.5 187L164 154L180.5 150.5H184.5L192 147L196.5 142.5L202.5 138L204 136.5L200 132.5L188 128.5L173.5 123.5L160 115L155.5 106L149.5 81.5L141 40L134 5L132 0H114.5L87 5L60.5 10L39.5 15.5L19 23L2.5 28.5L0.5 34L4 40L13 71L23 103L27.5 123.5V142.5V156.5L19 169L11 181L2.5 188L4 193.5L7 196L17 193.5Z" fill="black"/>
<path id="Head" d="M171.5 144L156.5 124.5L148.5 104L137.5 95.5L121.5 86.5L97 76.5H70L47 84.5L33 104L31 130.5V155.5V174L33 189L39 202L43 214L47 221.5L53 229.5L60 237L65 244.5L70 250L79.5 261L97 264H121.5H148.5H160L165.5 261H174H184.5L193.5 258.5L199.5 257L209.5 258.5L221 261L230.5 264L236.5 266.5H241V264L236.5 261L230.5 254.5L227.5 250L223 244.5L217.5 239L209.5 229.5L204.5 221.5L200.5 214V207V199.5L204.5 196.5L212 193L221 189L225.5 185V181L221 177H217.5H212H207L200.5 174L193.5 170L187.5 164.5L181.5 158L178.5 152L171.5 144Z" fill="black" stroke="black"/>
<path id="glases" d="M152 173.5V184L142 191L140 195V202V225L141.5 241.5V263V285L140 298L138 309L133 322.5L127.5 332.5L118 346.5L109.5 357.5L96.5 368.5L90.5 375.5L96.5 372L109.5 362L120 351.5L130 336.5L135.5 325L140 314L143 303.5L146 286V266.5V238V214V197.5L154 192.5H157.5L161 195L165.5 199.5L176 197.5L181.5 188.5L179 175.5L171.5 163.5L165.5 160.5H157.5L152 165.5V173.5Z" fill="white"/>
</g>
</svg>
