<svg width="530" height="643" viewBox="0 0 530 643" fill="none" xmlns="http://www.w3.org/2000/svg">
<g id="leftArm">
<path id="leftUpArm" d="M209.944 190.376L219.517 156.375L223.108 90.7218L242.687 58.4998L269.49 29.3896L298.131 26.9985L313.357 49.2064L326.609 85.1602L322.345 117.088L315.01 140.714L301.538 206.214L291.131 239.708L273.036 269.489L256.598 288.629L243.151 302.21L207.495 295.893L192.696 264.728L200.822 225.609L209.944 190.376Z" fill="black"/>
<g id="leftThumb" filter="url(#filter0_d)">
<path d="M295.998 507.927L265.775 487.407L264.677 508.408L267.465 514.28L271.01 515.918L286.569 520.707L301.981 521.692L312.561 518.328L321.64 511.803L295.998 507.927Z" fill="white"/>
<path d="M295.998 507.927L265.775 487.407L264.677 508.408L267.465 514.28L271.01 515.918L286.569 520.707L301.981 521.692L312.561 518.328L321.64 511.803L295.998 507.927Z" stroke="black" stroke-width="5"/>
</g>
<path id="leftHand" d="M263.378 517.328L282.36 496.691L294.029 461.815L274.425 479.979L258.12 489.935L241.453 495.635L222.002 473.322L228.463 540.549L218.51 579.038L220.031 603.224L225.802 594.395L232.623 588.943L232.372 601.238L236.233 609.368L242.309 596.52L245.552 580.036L247.869 565.098L252.691 558.934L260.051 570.937L269.793 586.791L287.912 608.63L288.636 595.002L283.603 578.573L264.977 548.672L259.04 532.672L263.378 517.328Z" fill="white" stroke="black" stroke-width="5"/>
<path id="leftLowArm" d="M276.408 261.51L255.218 236.701L231.598 232.419L207.208 244L191.985 266.727L195.93 314.669L209.764 382.27L219.789 472.158L241.668 496.087L252.225 493.841L272.121 483.287L280.082 476.739L288.066 469.074L294.48 461.6L295.826 450.445L292.218 407.877L282.782 388.004L277.514 350.099L278.771 321.274L280.096 289.095L276.408 261.51Z" fill="black"/>
</g>
<defs>
<filter id="filter0_d" x="248.3" y="462.868" width="85.145" height="83.5471" filterUnits="userSpaceOnUse" color-interpolation-filters="sRGB">
<feFlood flood-opacity="0" result="BackgroundImageFix"/>
<feColorMatrix in="SourceAlpha" type="matrix" values="0 0 0 0 0 0 0 0 0 0 0 0 0 0 0 0 0 0 127 0"/>
<feOffset dy="4"/>
<feGaussianBlur stdDeviation="2"/>
<feColorMatrix type="matrix" values="0 0 0 0 0 0 0 0 0 0 0 0 0 0 0 0 0 0 0.25 0"/>
<feBlend mode="normal" in2="BackgroundImageFix" result="effect1_dropShadow"/>
<feBlend mode="normal" in="SourceGraphic" in2="effect1_dropShadow" result="shape"/>
</filter>
</defs>
</svg>
