<svg width="397" height="713" viewBox="0 0 397 713" fill="none" xmlns="http://www.w3.org/2000/svg">
<path id="leg1" d="M59.2695 177.157L12.2602 116.805L3.58414e-06 73L12.2602 45.5L39 12.269L69 4.5L98 0.499993L122.871 12.269L212.533 173.759L279.504 308.56L297.159 344.243L301.518 369.368L291.262 377.357L272.237 387.105L250.928 392.295L236.412 391.56L224.18 395.384L209.19 407.059L216.224 430.735L226.296 472.958L234.077 499.221L268.368 558.705L287.368 574.96L292.25 595.875L324.101 614.797L348.665 623.55L366.303 636.43L385.996 641.371L396.92 648.073L379.822 653.786L371.933 659.931L369.404 680.281L383.4 690.927L394.291 712.232L345.13 709.329L315.525 703.868L289.778 696.037L272.265 673.553L259.41 665.186L245.945 661.731L230.649 612.802L212.634 562.822L157.449 476.515L114.621 436.99L89.7337 405.039L87.9612 379.167L92.4169 354.782L118.451 334.503L147.707 342.771L154.807 337.24L172.952 323.107L195.424 288.491L170.894 265.135L114.816 217.55L77.3973 200.43L59.2695 177.157Z" fill="black"/>
</svg>
