<svg width="289" height="794" viewBox="0 0 289 794" fill="none" xmlns="http://www.w3.org/2000/svg">
<path id="leg2" d="M151 165.5V80L161.5 41.5L182 13L212 0.5L243.5 10L271.5 48.5L289 80V149L277.5 233L259 323L244.5 407L225 464.5H198.5L169 453L151 438H126.5L118 453L108.5 482.5L90 520L85.5 553L77 595.5L85.5 617L77 636.5L85.5 659.5L97 684L108.5 708.5L118 727L126.5 745L108.5 736.5H97L90 745L85.5 759.5L90 774.5L85.5 794L72 782.5L51 759.5L33 745L13 727V708.5V684L0 659.5L13 628.5L24.5 595.5L33 567.5V520L42.5 453L33 407V362.5L51 339.5L72 323H97L118 351H151L185.5 339.5V323V310L169 242.5L151 193.5V165.5Z" fill="black"/>
</svg>
