<svg width="301" height="622" viewBox="0 0 301 622" fill="none" xmlns="http://www.w3.org/2000/svg">
<path id="trankdude" d="M273.5 612L130.5 621.5L108.5 578.5L99.5 546V507.5L116.5 470.5L130.5 447L146 418V401V382L130.5 363.5L116.5 326.5L99.5 285L78 265L44 224.5L19 180L8.5 158L0 141.5V129L14.5 108L30.5 98.5L42 97.5L54 98.5L78 99.5L90 92V70L87 30.5L95 9.5L116.5 0L138 6L160 30.5L170.5 56L178.5 92L192 99.5L231 109L267.5 119L279 129L284 142.5L288 161L292.5 180V200.5V215.5V252.5L300.5 285V326.5V382L292.5 428.5V529L273.5 612Z" fill="black"/>
</svg>
