<svg width="1225" height="1475" viewBox="0 0 1225 1475" fill="none" xmlns="http://www.w3.org/2000/svg">
<g id="girlBody">
<path id="dressItem3" d="M354.123 1194.64L325.358 1298.26L347.507 1282.14L367.507 1245.92L403.809 1202.86L418.721 1190.7L420.741 1198.44L423.393 1208.6L433.869 1213.1L444.029 1210.44L476.523 1162.69L501.276 1116.96L532.612 1062.79L559.614 999.933L580.917 948.899L611.96 913.409L621.152 911.01L631.482 924.85L646.229 931.853L670.902 925.413L701.695 900.841L745.147 845.576L802.055 730.991L872.483 563.27L796.081 727.9L760.602 791.935L701.606 856.94L670.16 877.033L654.614 863.004L628.299 863.154L599.525 883.583L571.447 912.614L558.008 938.342L540.659 984.726L512.144 1053.66L462.572 1127.06L443.704 1131.98L422.792 1103.34L403.439 1096.5L383.714 1147.64L354.123 1194.64Z" fill="#C4C4C4" fill-opacity="0.31" stroke="black"/>
<path id="dressItem2" d="M399.759 1292.28L370.733 1311.74L368.842 1328.25L370.738 1359.28L379.703 1393.63L402.864 1405.15L427.538 1398.71L454.27 1368.48L462.656 1311.52L538.612 1291.69L565.386 1253.7L588.055 1194.04L605.466 1141.96L626.747 1088.86L624.087 1007.39L637.506 991.489L694.11 976.715L722.735 941.857L754.426 863.308L716.043 916.216L687.418 951.074L641.457 963.07L616.381 942.227L603.721 972.918L599.712 1042.69L574.497 1102.5L549.431 1164.85L509.009 1231.72L467.93 1258.47L427.819 1284.95L399.759 1292.28Z" fill="#C4C4C4" fill-opacity="0.46" stroke="black"/>
<g id="hair">
<path id="hairshape" d="M396.929 277.604L396.196 300.532L494.633 426.248L514.24 445.935L533.595 464.654L544.534 466.967L554.398 459.225L567.419 463.577L588.581 469.423L624.866 459.953L645.692 468.469L657.788 477.198L673.459 479.825L696.724 477.887L720.914 471.574L747.731 449.589L763.423 442.393L779.978 448.408L802.442 439.444L829.976 428.124L858.077 413.039L890.51 382.87L862.66 387.039L820.989 379.828L781.356 358.65L748.159 326.491L714.519 286.697L693.245 223.005L663.662 153.214L646.662 127.679L626.845 111.147L587.55 99.1829L550.992 105.624L536.455 95.4656L519.565 104.008L490.162 133.902L472.072 143.791L444.496 150.988L420.749 164.937L403.944 181.725L395.301 202.067L391.286 224.302L392.257 259.704L396.929 277.604Z" fill="black"/>
<path id="highlight hair" d="M567.899 239.7L548.879 206.425L545.742 184.506L548.959 167.131L551.023 190.879L560.07 209.705L583.424 251.667L585.929 271.167L585.511 289.362L577.163 314.794L578.848 337.092L588.4 357.852L569.172 339.617L565.51 325.587L569.125 299.839L575.096 267.276L567.899 239.7Z" fill="white"/>
</g>
<path id="dressItem1" d="M421.978 977.462L358.005 1112.49L383.868 1021.51L453.499 882.421L475.749 840.959L497.601 807.868L514.239 798.358L536.685 811.103L550.04 789.014L591.178 732.804L640.143 694.703L653.017 696.511L678.45 704.859L723.167 678.202L772.848 638.882L811.442 594.704L879.987 514.804L818.387 621.312L743.935 728.074L665.397 791.462L623.093 769.948L571.142 824.33L517.993 880.058L510.669 851.998L495.652 865.736L421.978 977.462Z" fill="#C4C4C4" fill-opacity="0.51" stroke="black"/>
<path id="filling" d="M373.863 545.616L364.802 584.153L391.355 642.333L395.737 702.683L181.09 668.273L214.675 596.981L256.527 527.665L254.525 498.216L256.899 469.692L248.294 458.502L233.42 439.131L234.91 407.22L245.762 389.402L273.211 369.836L350.722 336.171L405.893 300.069L447.032 255.743L487.169 266.971L503.601 296.271L465.846 327.828L495.358 320.126L523.842 342.146L507.167 395.073L477.132 422.548L445.162 450.528L426.508 487.952L407.957 511.913L373.863 545.616Z" fill="white"/>
<path id="dress" d="M488.915 635.99L416.19 581.076L392.462 573.317L365.579 577.232L372.896 545.868L424.741 493.064L446.57 446.027L379.545 379.29L318.289 366.339L268.268 372.677L237.854 398.701L232.958 441.318L256.289 469.335L255.938 529.369L217.178 592.71L182.31 668.988L167.763 751.847L171.986 890.784L233.422 1003.42L326.439 1179.64L315.698 1255.31L318.778 1330.46L340.57 1326.84L351.026 1341.17L358.309 1376.99L363.065 1403.14L382.464 1437.86L404.279 1448.19L425.377 1447.85L464.604 1417.98L490.665 1404.97L519.501 1378.84L547.747 1342.53L572.333 1304.08L591.766 1271.62L609.982 1274.1L638.694 1259.37L684.964 1195.1L724.248 1111.99L769.082 1002.62L798.608 937.557L832.614 871.839L876.548 792.679L928.391 716.105L919.85 711.1L881.229 705.677L861.412 689.146L858.002 676.083L859.767 659.087L884.225 608.263L927.271 490.061L955.866 381.832L972.395 338.245L974.723 281.829L943.642 360.735L909.972 423.782L872.494 482.137L828.242 530.376L751.599 612.906L714.686 643.727L651.037 669.123L613.868 675.207L571.019 671.404L528.19 657.778L488.915 635.99Z" fill="url(#paint0_linear)" fill-opacity="0.2"/>
<g id="face">
<path id="facemain" d="M519.232 130.449L534.229 126.535L521.296 154.197L524.096 178.787L531.167 205.88L548.987 228.617L569.394 255.329L564.136 262.902L527.495 284.867L497.016 292.822L462.539 289.418L440.977 280.06L439.585 250.969L453.001 211.295L464.231 183.043L479.206 165.183L519.232 130.449Z" fill="white" stroke="black" stroke-width="5"/>
<path id="mouth" d="M462.554 232.055L464.953 241.247L465.038 249.493L469.751 259.632L478.649 264.027L488.241 265.141L496.761 268.085L506.711 268.588L505.953 265.686L499.116 261.269L495.308 256.579L491.458 247.765L486.346 245.999L483.001 239.121L476.564 238.217L469.286 238.05L468.149 233.695L466.045 229.594L462.554 232.055Z" fill="black"/>
<path id="nosegirl" d="M490.174 240.866L498.925 242.716L496.463 239.224L492.803 237.079L490.909 229.822L487.606 227.067L485.082 229.276L487.481 238.468L490.174 240.866Z" fill="black"/>
<path id="lefteye" d="M534.24 221.614L529.991 221.172L530.434 228.808L533.464 240.419L541.669 248.096L551.871 249.567L558.16 247.926L557.529 245.507L550.356 243.762L544.36 238.609L536.387 229.838L534.24 221.614Z" fill="black"/>
<path id="righteye" d="M486.128 177.845L491.133 169.304L495.025 170.356L494.479 176.182L498.939 185.353L506.05 192.799L512.277 196.858L514.359 198.898L513.918 203.147L508.323 201.507L499.214 200.267L490.547 194.778L486.844 188.51L486.128 177.845Z" fill="black"/>
</g>
</g>
<defs>
<linearGradient id="paint0_linear" x1="510.355" y1="316.212" x2="781.449" y2="1354.92" gradientUnits="userSpaceOnUse">
<stop stop-color="#FA1A1A"/>
<stop offset="1" stop-color="white" stop-opacity="0"/>
</linearGradient>
</defs>
</svg>
