<svg width="738" height="922" viewBox="0 0 738 922" fill="none" xmlns="http://www.w3.org/2000/svg">
<g id="leftLeg">
<path id="wholelegleft" d="M473.256 806.128L469.46 852.99L435.834 897.132L398.824 916.989L393.2 783.826L375.488 650.34L338.69 529.93L290.78 412.078L282.006 324.864L266.558 238.961L240.826 145.524L227.979 64.4676L275.122 39.1744L369.878 59.2636L399.671 153.925L390.242 253.743L368.155 325.739L363.038 373.311L391.899 412.298L407.015 471.144L419.333 611.496L449.791 737.009L473.256 806.128Z" fill="white" stroke="white" stroke-width="5"/>
<path id="shoeleft" d="M411.754 876.574L396.077 852.642L398.599 909.166L402.617 916.656L426.409 903.891L461.927 863.274L469.256 853.667L471.89 836.366L471.87 804.602L454.475 752.086L446.07 778.724L438.932 841.566L411.754 876.574Z" fill="black"/>
</g>
</svg>
