<svg width="607" height="271" viewBox="0 0 607 271" fill="none" xmlns="http://www.w3.org/2000/svg">
<g id="leftArm">
<path id="leftLowArm" d="M261.291 88.7783L235.271 107.033L230.428 139.572L241.93 150.872L264.586 153.829L319.923 138.21L436.494 89.201L455.583 90.567L474.831 85.1341L475.614 54.7798L474.454 52.5096L443.657 61.2022L367.787 75.8634L261.291 88.7783Z" fill="white"/>
<path id="leftHand" d="M487.492 53.3574L465.238 53.132L449.378 58.7453L443.456 73.3713L448.508 91.2698L466.523 93.1152L487.013 107.341L494.698 112.677L503.34 113.266L528.035 126.95L526.68 118.626L521.71 111.597L502.335 100.545L500.902 93.1062L506.688 87.8363L528.644 83.977L540.079 92.3632L538.461 127.266L547.773 103.982L549.501 89.6875L542.857 80.3041L539.557 75.4415L568.743 70.3029L588.262 72.4392L572.4 63.2304L549.108 62.8743L535.722 61.8563L556.505 55.9902L590.847 53.2432L578.455 49.7944L554.145 47.631L533.524 52.9314L542.119 31.04L563.648 16.943L541.576 26.6948L527.742 41.9244L515.666 49.8771L505.671 54.0436L487.492 53.3574Z" fill="white"/>
<path id="leftUpArm" d="M45.0658 180.462L22.5737 190.967L12.7673 207.763L20.5092 235.191L56.7661 258.727L87.0816 250.17L133.94 222.916L152.09 217.274L182.145 204.115L209.263 186.07L255.404 147.069L267.803 135.777L263.049 118.935L244.267 107.611L233.68 110.599L174.151 148.183L142.831 159.621L112.275 168.246L45.0658 180.462Z" fill="white"/>
</g>
</svg>
