<svg width="384" height="845" viewBox="0 0 384 845" fill="none" xmlns="http://www.w3.org/2000/svg">
<g id="rightLeg">
<path id="wholelegright" d="M227 86.5L264.5 3L308 10L381 73.5L361 171.5L307 254L252 308L226.5 345L233.5 395L219.5 454.5L164.5 582.5L132.5 699L119 780L93 820.5L43.5 842H3V839L60 720.5L107 596L131 473L144 345L179.5 260L205 182.5L227 86.5Z" fill="white" stroke="white" stroke-width="5"/>
<path id="shoeright" d="M108.5 742L128 723L119 776.5L94 819L48.5 841.5H3.5V836L28 785L32 813L73 793.5L108.5 742Z" fill="black"/>
</g>
</svg>
