<svg width="608" height="205" viewBox="0 0 608 205" fill="none" xmlns="http://www.w3.org/2000/svg">
<g id="rightArm">
<path id="rightLowArm" d="M352.024 108.996L350.591 138.804L330.5 145L289.45 125.196L246.888 103.3L173.71 49.119L147.744 42.3307L131.719 19.3432L137.97 8.72499L233.325 55.4958L330.475 86.8962L352.024 108.996Z" fill="white"/>
<path id="rightUpArm" d="M580 135.682L592.5 144.084L608 179.268L564 205H532.5L479 191.346H438L400.5 179.268L329 144.084V127.804L341.5 111H353L423 135.682H507.5L555 127.804L580 135.682Z" fill="white"/>
<path id="rightHand" d="M99.4991 14.3576L120.855 8.09554L137.644 9.18946L147.316 21.6567V40.2544L130.48 46.9242L114.625 66.1816L108.678 73.4036L100.521 76.3186L80.472 96.1962L79.515 87.8167L82.3889 79.7024L98.0323 63.8026L97.3914 56.2544L90.3914 52.7544L68.2123 55.0046L59.4857 66.1816L70.5239 99.3323L55.2367 79.454L49.6905 66.1662L53.5358 55.3308L55.3914 49.7544L25.9063 52.7375L7.70173 60.0957L20.4661 46.9242L42.7852 40.2544L55.3914 35.6384H33.7969L0 42.3235L10.9885 35.6384L33.7969 26.9525L55.0821 26.4521L40.8639 7.71865L16.3149 0L40.2064 3.38922L57.657 14.2883L71.4389 18.6617L82.1898 19.9564L99.4991 14.3576Z" fill="white"/>
</g>
</svg>
